<?xml version="1.0" encoding="UTF-8" standalone="no"?>
<!-- icon666.com - MILLIONS OF FREE VECTOR ICONS -->

<svg
   id="Line-Gray"
   enable-background="new 0 0 102 126"
   viewBox="0 0 102 126"
   version="1.1"
   sodipodi:docname="pachinko_icon.svg"
   inkscape:version="1.4 (e7c3feb1, 2024-10-09)"
   xmlns:inkscape="http://www.inkscape.org/namespaces/inkscape"
   xmlns:sodipodi="http://sodipodi.sourceforge.net/DTD/sodipodi-0.dtd"
   xmlns="http://www.w3.org/2000/svg"
   xmlns:svg="http://www.w3.org/2000/svg">
  <defs
     id="defs21" />
  <sodipodi:namedview
     id="namedview21"
     pagecolor="#ffffff"
     bordercolor="#000000"
     borderopacity="0.25"
     inkscape:showpageshadow="2"
     inkscape:pageopacity="0.0"
     inkscape:pagecheckerboard="0"
     inkscape:deskcolor="#d1d1d1"
     inkscape:zoom="2.2739411"
     inkscape:cx="76.739015"
     inkscape:cy="61.347235"
     inkscape:window-width="1104"
     inkscape:window-height="626"
     inkscape:window-x="89"
     inkscape:window-y="105"
     inkscape:window-maximized="0"
     inkscape:current-layer="Line-Gray" />
  <g
     fill="rgb(0,0,0)"
     id="g21">
    <path
       d="m90.617 0h-79.234c-6.277 0-11.383 5.106-11.383 11.383v89.193c0 .552.448 1 1 1h7.491v23.424c0 .017.009.031.01.048.003.067.023.13.04.196.017.065.03.13.059.19.007.015.006.032.015.047.046.085.104.159.169.225.003.003.007.005.01.008.08.078.173.136.271.183.027.013.054.024.082.034.11.041.224.069.342.069h.002 84.905.002c.118 0 .232-.029.342-.069.028-.011.055-.021.082-.034.099-.047.192-.105.272-.183.003-.003.007-.005.01-.008.065-.065.122-.14.169-.225.008-.015.007-.032.015-.047.029-.06.042-.124.059-.19s.036-.129.04-.196c.001-.017.01-.031.01-.048v-23.424h5.603c.552 0 1-.448 1-1v-89.193c0-6.277-5.106-11.383-11.383-11.383zm-74.579 101.576v18.699l-5.547 3.038v-21.737zm11.32 0v12.498l-9.321 5.105v-17.603zm47.17 0v12.091h-45.17v-12.091zm11.321 0v17.603l-9.321-5.105v-12.498zm-57.235 14.091h46.658l15.216 8.333h-77.09zm64.782 7.645-5.547-3.038v-18.699h5.547zm6.604-23.736h-98v-88.193c0-5.174 4.209-9.383 9.383-9.383h79.234c5.174 0 9.383 4.209 9.383 9.383z"
       id="path1" />
    <path
       d="m51 4.697c-22.919 0-41.566 18.569-41.566 41.394s18.647 41.394 41.566 41.394 41.566-18.569 41.566-41.394-18.647-41.394-41.566-41.394zm0 80.788c-21.817 0-39.566-17.672-39.566-39.394s17.749-39.394 39.566-39.394 39.566 17.672 39.566 39.394-17.749 39.394-39.566 39.394z"
       id="path2" />
    <path
       d="m51 9.394c-20.319 0-36.849 16.462-36.849 36.697s16.53 36.697 36.849 36.697 36.849-16.462 36.849-36.697-16.53-36.697-36.849-36.697zm0 71.394c-19.216 0-34.849-15.565-34.849-34.697s15.633-34.697 34.849-34.697 34.849 15.565 34.849 34.697-15.633 34.697-34.849 34.697z"
       id="path3" />
    <path
       d="m16.094 83.606c-3.672 0-6.66 2.977-6.66 6.636 0 3.66 2.988 6.637 6.66 6.637 3.673 0 6.661-2.977 6.661-6.637 0-3.659-2.988-6.636-6.661-6.636zm0 11.273c-2.57 0-4.66-2.08-4.66-4.637s2.09-4.636 4.66-4.636 4.661 2.08 4.661 4.636-2.091 4.637-4.661 4.637z"
       id="path4" />
    <path
       d="m85.906 83.606c-3.673 0-6.661 2.977-6.661 6.636 0 3.66 2.988 6.637 6.661 6.637 3.672 0 6.66-2.977 6.66-6.637 0-3.659-2.988-6.636-6.66-6.636zm0 11.273c-2.57 0-4.661-2.08-4.661-4.637s2.091-4.636 4.661-4.636 4.66 2.08 4.66 4.636-2.09 4.637-4.66 4.637z"
       id="path5" />
    <path
       d="m42.509 111.909h16.981c.552 0 1-.448 1-1s-.448-1-1-1h-.96c-.494-3.705-3.678-6.576-7.53-6.576s-7.036 2.871-7.53 6.576h-.961c-.552 0-1 .448-1 1s.448 1 1 1zm7.204-2c.301-.381.763-.63 1.287-.63s.986.25 1.287.63zm1.287-4.576c2.746 0 5.033 1.978 5.509 4.576h-2.025c-.439-1.514-1.826-2.63-3.483-2.63s-3.045 1.117-3.483 2.63h-2.025c.474-2.598 2.761-4.576 5.507-4.576z"
       id="path6" />
    <path
       d="m67.038 110.97c2.112 0 3.831-1.713 3.831-3.818s-1.718-3.818-3.831-3.818c-2.112 0-3.83 1.713-3.83 3.818s1.718 3.818 3.83 3.818zm0-5.637c1.009 0 1.831.815 1.831 1.818s-.821 1.818-1.831 1.818-1.83-.816-1.83-1.818.82-1.818 1.83-1.818z"
       id="path7" />
    <path
       d="m36.849 110.97c2.112 0 3.83-1.713 3.83-3.818s-1.718-3.818-3.83-3.818-3.83 1.713-3.83 3.818 1.718 3.818 3.83 3.818zm0-5.637c1.009 0 1.83.815 1.83 1.818s-.821 1.818-1.83 1.818-1.83-.816-1.83-1.818.821-1.818 1.83-1.818z"
       id="path8" />
    <path
       d="m40.623 28.303c2.112 0 3.83-1.713 3.83-3.818s-1.718-3.818-3.83-3.818-3.83 1.713-3.83 3.818 1.718 3.818 3.83 3.818zm0-5.636c1.009 0 1.83.816 1.83 1.818s-.821 1.818-1.83 1.818-1.83-.816-1.83-1.818.82-1.818 1.83-1.818z"
       id="path9" />
    <path
       d="m26.472 36.758c2.112 0 3.83-1.713 3.83-3.818s-1.718-3.818-3.83-3.818-3.83 1.713-3.83 3.818 1.718 3.818 3.83 3.818zm0-5.637c1.009 0 1.83.816 1.83 1.818s-.821 1.818-1.83 1.818-1.83-.816-1.83-1.818.82-1.818 1.83-1.818z"
       id="path10" />
    <path
       d="m62.321 28.303c2.112 0 3.83-1.713 3.83-3.818s-1.718-3.818-3.83-3.818-3.83 1.713-3.83 3.818 1.718 3.818 3.83 3.818zm0-5.636c1.009 0 1.83.816 1.83 1.818s-.821 1.818-1.83 1.818-1.83-.816-1.83-1.818.821-1.818 1.83-1.818z"
       id="path11" />
    <path
       d="m51.943 47.091c2.112 0 3.83-1.713 3.83-3.818s-1.718-3.818-3.83-3.818-3.83 1.713-3.83 3.818 1.719 3.818 3.83 3.818zm0-5.636c1.009 0 1.83.816 1.83 1.818s-.821 1.818-1.83 1.818-1.83-.815-1.83-1.818.821-1.818 1.83-1.818z"
       id="path12" />
    <path
       d="m36.906 58.303c0-2.105-1.718-3.818-3.83-3.818s-3.831 1.713-3.831 3.818 1.718 3.818 3.831 3.818c2.112 0 3.83-1.713 3.83-3.818zm-5.661 0c0-1.002.821-1.818 1.831-1.818s1.83.816 1.83 1.818-.821 1.818-1.83 1.818-1.831-.815-1.831-1.818z"
       id="path13" />
    <path
       d="m69.868 52.606c-2.112 0-3.831 1.713-3.831 3.818s1.718 3.818 3.831 3.818c2.112 0 3.83-1.713 3.83-3.818s-1.718-3.818-3.83-3.818zm0 5.636c-1.009 0-1.831-.815-1.831-1.818s.821-1.818 1.831-1.818 1.83.816 1.83 1.818-.821 1.818-1.83 1.818z"
       id="path14" />
    <path
       d="m80.245 42.394c2.112 0 3.831-1.713 3.831-3.818s-1.718-3.818-3.831-3.818c-2.112 0-3.83 1.713-3.83 3.818s1.718 3.818 3.83 3.818zm0-5.636c1.009 0 1.831.815 1.831 1.818s-.821 1.818-1.831 1.818-1.83-.816-1.83-1.818.821-1.818 1.83-1.818z"
       id="path15" />
    <path
       d="m41.578 40.394h-18.892c-2.105 0-3.818 1.713-3.818 3.818s1.713 3.818 3.818 3.818h18.892c2.105 0 3.818-1.713 3.818-3.818s-1.713-3.818-3.818-3.818zm0 5.636h-18.892c-1.002 0-1.818-.816-1.818-1.818s.815-1.818 1.818-1.818h18.892c1.002 0 1.818.815 1.818 1.818s-.815 1.818-1.818 1.818z"
       id="path16" />
    <path
       d="m50.209 49.51c-1.125-1.12-2.954-1.12-4.08 0-.546.544-.847 1.267-.847 2.037s.301 1.494.847 2.038l8.672 8.635c.562.56 1.301.84 2.04.84s1.478-.28 2.04-.84c.546-.544.847-1.268.847-2.038s-.301-1.493-.847-2.036zm7.262 11.291c-.346.345-.91.346-1.257 0l-8.672-8.635c-.167-.166-.258-.386-.258-.62s.092-.454.258-.62c.173-.172.401-.259.628-.259.228 0 .456.086.629.259l8.672 8.636c.167.166.258.385.258.619s-.092.455-.258.62z"
       id="path17" />
    <path
       d="m74.454 31.546c-.721-.526-1.66-.677-2.514-.402-3.796 1.217-7.917 1.215-11.717-.008-.853-.277-1.757-.131-2.481.396s-1.139 1.343-1.139 2.238c0 1.149.697 2.165 1.777 2.588 2.468.968 5.063 1.458 7.713 1.458 2.655 0 5.258-.494 7.734-1.467 1.067-.419 1.756-1.431 1.756-2.577v-.003c.002-.889-.41-1.699-1.129-2.223zm-.869 2.226c0 .318-.191.6-.488.716-4.481 1.761-9.513 1.762-13.986.008-.303-.119-.507-.411-.507-.726 0-.249.115-.475.316-.622.134-.097.29-.148.45-.148.08 0 .161.013.24.038 4.197 1.353 8.75 1.354 12.94.009.251-.081.515-.039.725.114.116.084.31.275.31.607z"
       id="path18" />
    <path
       d="m54.773 71.394c-.552 0-1 .448-1 1v4.636h-5.547v-4.636c0-.552-.448-1-1-1s-1 .448-1 1v5.636c0 .552.448 1 1 1h7.547c.552 0 1-.448 1-1v-5.636c0-.552-.447-1-1-1z"
       id="path19" />
    <path
       d="m41.566 63.879c-.552 0-1 .448-1 1v4.636h-5.547v-4.636c0-.552-.448-1-1-1s-1 .448-1 1v5.636c0 .552.448 1 1 1h7.547c.552 0 1-.448 1-1v-5.636c0-.552-.448-1-1-1z"
       id="path20" />
    <path
       d="m68.924 63.879c-.552 0-1 .448-1 1v4.636h-5.547v-4.636c0-.552-.448-1-1-1s-1 .448-1 1v5.636c0 .552.448 1 1 1h7.547c.552 0 1-.448 1-1v-5.636c0-.552-.447-1-1-1z"
       id="path21" />
  </g>
  <path
     style="fill:#ff2a2a;stroke-width:0.219883;paint-order:markers fill stroke"
     d="m 80.808973,116.16222 -4.065697,-2.26305 -0.0021,-6.04677 -0.0021,-6.04677 h 4.397651 4.397651 v 8.35553 c 0,4.59555 -0.14842,8.33497 -0.329823,8.30983 -0.181403,-0.0251 -2.159388,-1.06409 -4.395521,-2.30877 z"
     id="path22" />
  <path
     style="fill:#ff2a2a;stroke-width:0.219883;paint-order:markers fill stroke"
     d="m 18.250253,110.16116 v -8.35553 h 4.397651 4.397651 v 6.07835 6.07835 l -4.158952,2.27719 c -2.287423,1.25245 -4.266366,2.27718 -4.397651,2.27718 -0.131285,0 -0.238699,-3.75999 -0.238699,-8.35554 z"
     id="path23" />
  <path
     style="fill:#ff2a2a;stroke-width:0.219883;paint-order:markers fill stroke"
     d="m 27.131123,42.109424 c 2.586706,-0.07761 6.940381,-0.07789 9.674833,-6.05e-4 2.734452,0.07728 0.618056,0.140783 -4.703102,0.141115 -5.321158,3.33e-4 -7.558437,-0.0629 -4.971731,-0.14051 z"
     id="path26" />
  <path
     style="fill:#ff5555;stroke-width:0.219883;paint-order:markers fill stroke"
     d="m 80.806842,115.8464 -4.067827,-2.20325 v -5.91876 -5.91876 h 4.397651 4.397651 l -0.05165,3.84794 c -0.02841,2.11637 -0.17683,5.77128 -0.329824,8.12201 l -0.27817,4.27406 z"
     id="path24" />
  <path
     style="fill:#ff5555;stroke-width:0.219883;paint-order:markers fill stroke"
     d="m 18.53991,112.47241 c -0.15735,-3.08522 -0.286893,-6.74738 -0.287874,-8.13813 l -0.0018,-2.52865 h 4.410061 4.410061 l -0.122351,6.00286 -0.122351,6.00286 -3.999836,2.13528 -3.999836,2.13527 z"
     id="path25" />
</svg>
