<?xml version="1.0" encoding="utf-8" ?>
<svg xmlns="http://www.w3.org/2000/svg" xmlns:xlink="http://www.w3.org/1999/xlink" width="1024" height="1024">
	<path d="M696.541 229.25C702.911 228.737 709.543 228.91 715.937 229.038C776.421 230.247 840.41 246.669 883.552 291.626Q888.9 297.103 893.635 303.118Q898.37 309.134 902.438 315.619C904.936 319.619 907.045 323.844 909.548 327.83C913.467 334.07 918.093 339.929 921.731 346.328Q923.324 349.154 924.823 352.031Q926.322 354.908 927.724 357.833Q929.126 360.758 930.431 363.727Q931.736 366.697 932.941 369.709Q934.147 372.72 935.252 375.77Q936.357 378.82 937.361 381.905Q938.364 384.989 939.265 388.106Q940.166 391.222 940.963 394.366Q941.76 397.511 942.452 400.68Q943.144 403.849 943.731 407.039Q944.318 410.23 944.799 413.438Q945.28 416.646 945.654 419.868Q946.028 423.09 946.296 426.323Q946.563 429.556 946.723 432.796Q946.883 436.036 946.935 439.279Q946.988 442.523 946.933 445.766C944.585 545.204 870.292 642.637 801.091 708.559C684.659 819.474 506.674 918.981 342.499 914.906C334.326 914.385 326.181 914.127 318.028 913.278C257.822 907.005 201.567 879.921 163.182 832.411C157.594 825.495 153.234 817.961 148.141 810.71C142.339 802.448 136.253 794.717 131.417 785.799C114.678 754.934 111.262 718.115 114.984 683.679C125.721 584.357 211.867 480.656 283.46 414.977Q303.026 396.97 323.719 380.269C331.971 373.649 340.563 367.475 348.798 360.834C345.736 354.84 340.907 351.077 339.391 344.213C340.162 340.638 341.226 338.313 343.869 335.671C347.832 331.711 353.645 328.876 359.327 329.009C368.316 329.219 371.424 336.879 376.85 342.619C385.196 338.197 392.925 332.136 400.875 327.003Q418.474 315.884 436.71 305.843C516.05 262.359 605.861 233.106 696.541 229.25ZM372.73 430.756Q379.375 425.786 386.206 421.075C380.817 421.549 375.391 421.392 369.986 421.375C365.15 425.014 360.633 428.99 355.936 432.796L313.841 404.328C322.015 397.443 330.242 390.761 338.983 384.602C345.081 380.304 351.857 376.45 357.597 371.723C355.343 369.462 353.095 367.215 350.726 365.074C334.398 377.22 318.352 389.61 303.002 402.989C228.556 467.875 134.724 575.556 120.013 675.657C113.867 717.478 118.867 764.416 144.761 799.13C176.187 841.259 229.34 860.821 279.74 867.992C320.446 873.785 362.3 870.348 402.597 863.142Q407.582 862.21 412.554 861.206Q417.525 860.201 422.481 859.124Q427.438 858.047 432.378 856.898Q437.318 855.75 442.24 854.529Q447.163 853.308 452.068 852.016Q456.972 850.724 461.857 849.36Q466.742 847.996 471.607 846.562Q476.472 845.127 481.315 843.622Q486.158 842.116 490.979 840.541Q495.8 838.965 500.597 837.319Q505.395 835.673 510.168 833.958Q514.94 832.242 519.688 830.457Q524.435 828.672 529.156 826.818Q533.877 824.965 538.57 823.042Q543.264 821.12 547.929 819.129Q552.594 817.139 557.229 815.08Q561.864 813.022 566.469 810.896Q571.074 808.771 575.648 806.578Q580.221 804.386 584.762 802.127Q589.303 799.868 593.811 797.543Q598.318 795.218 602.792 792.828Q607.265 790.438 611.703 787.983Q616.141 785.528 620.543 783.008Q624.945 780.489 629.309 777.905Q633.674 775.322 638 772.675Q642.327 770.029 646.614 767.319Q650.902 764.61 655.149 761.838Q659.397 759.067 663.604 756.234Q667.811 753.4 671.976 750.506Q676.141 747.612 680.263 744.657Q684.385 741.703 688.464 738.689Q692.543 735.674 696.578 732.601Q721.989 713.214 745.733 691.818C821.572 624.293 901.751 528.83 916.415 425.142C922.097 384.962 916.966 341.064 891.98 307.779C859.981 265.153 805.538 243.549 754.204 236.367C741.588 234.602 717.625 232.413 705.369 233.728C682.464 234.725 660.057 236.408 637.371 239.946C561.815 251.729 487.729 280.453 421.994 319.236C415.274 323.2 386.414 339.909 382.546 344.321C381.635 345.359 381.16 346.331 380.751 347.634L380.952 348.897C382.245 349.788 383.261 349.917 384.819 349.637C393.915 348.003 410.25 335.778 418.662 330.597C422.405 336.302 443.132 366.744 442.326 371.226C441.449 371.897 441.232 371.915 440.123 372.052L438.426 371.37C435.824 373.538 433.421 382.898 431.711 386.563C439.4 382.572 446.703 377.911 454.338 373.827Q479.5 360.531 505.681 349.375C518.188 344.147 531.114 340.159 544.047 336.15C593.98 320.674 645.496 311.992 697.684 319.356C709.854 321.073 721.844 323.35 733.571 327.077C761.114 335.829 788.922 353.384 802.52 379.641C819.567 412.558 817.189 452.872 806.07 487.291C781.175 564.357 705.813 641.7 640.091 686.723C613.913 704.657 585.327 719.864 557.084 734.267Q541.072 742.489 524.462 749.425Q507.852 756.361 490.748 761.969C435.273 779.899 358.105 791.582 301.347 773.242C271.116 763.474 242.427 744.068 227.775 715.159C212.479 684.98 216.285 648.631 226.648 617.492C251.319 543.365 311.231 477.002 372.73 430.756ZM498.113 580.125C493.149 581.136 488.225 581.935 483.206 582.607C475.764 595.627 466.667 607.891 458.332 620.359L415.934 683.914C406.338 698.528 396.594 713.216 388.048 728.474C392.509 728.645 396.91 728.746 401.375 728.554Q408.446 728.244 415.499 727.649Q422.552 727.053 429.575 726.175Q436.598 725.296 443.58 724.135Q450.562 722.974 457.491 721.533Q464.421 720.092 471.286 718.372Q478.152 716.653 484.943 714.659Q491.734 712.664 498.439 710.398Q505.145 708.132 511.753 705.597C509.332 690.566 501.802 583.684 499.432 580.11L498.113 580.125ZM317.887 710.425C333.307 719.566 348.772 724.139 366.11 727.864C376.241 710.625 387.98 694.25 399.158 677.684C410.293 661.181 421.026 644.358 432.309 627.965C442.85 612.649 454.723 597.888 463.459 581.428C459.363 579.702 455.343 577.972 451.412 575.886Q421.322 595.494 390.705 614.269L288.798 678.108C296.629 691.748 304.827 701.532 317.887 710.425ZM595.363 370.265Q580.462 402.869 564.846 435.136C557.461 450.442 550.246 465.902 542.34 480.944C547.704 482.319 553.004 483.63 558.093 485.87C571.027 477.689 583.535 468.847 596.436 460.61Q631.36 436.843 666.791 413.837C680.846 404.624 695.886 395.829 709.113 385.467C682.268 370.867 660.153 367.054 630.242 367.25C618.811 367.71 606.51 367.499 595.363 370.265ZM420.658 445.597C411.456 454.203 400.656 461.029 390.944 469.047C363.496 491.709 337.31 517.859 317.891 547.885C329.447 546.869 341.036 545.326 352.545 543.857Q380.327 539.95 408.17 536.509C422.18 534.781 436.876 533.755 450.538 530.173C452.403 523.336 454.462 516.815 457.69 510.49C450.318 492.978 441.484 477.38 431.201 461.412C427.806 456.139 424.54 450.515 420.658 445.597ZM571.286 374.598Q564.397 376.007 557.567 377.681Q550.737 379.355 543.977 381.291Q537.216 383.227 530.536 385.423Q523.855 387.618 517.264 390.07Q510.673 392.521 504.182 395.225Q497.691 397.929 491.308 400.881Q484.926 403.833 478.662 407.029Q472.399 410.226 466.263 413.661C467.652 427.395 472.579 439.22 472.69 453.412C475.877 457.3 480.505 461.289 484.773 463.932C491.974 468.947 499.446 473.431 506.984 477.917C513.303 477.609 518.565 477.962 524.724 479.332C530.72 467.504 573.773 380.757 573.143 374.743C571.951 374.356 572.57 374.414 571.286 374.598ZM305.822 566.856C289.474 594.792 275.545 630.158 283.117 662.821Q363.341 613.617 442.514 562.736C441.643 558.607 442.851 550.483 441.628 547.68L440.944 547.737C413.348 550.695 385.746 555.383 358.293 559.488C340.84 562.098 323.229 564.014 305.822 566.856ZM569.166 508.34Q581.246 505.901 593.371 503.701C629.403 496.486 665.158 488.486 701.006 480.432C717.216 476.791 733.585 473.638 749.708 469.648C753.293 447.993 751.351 427.693 738.187 409.482C734.719 404.685 728.618 396.595 722.915 394.266C709.376 404.639 695.026 414.145 680.847 423.615Q653.289 442.159 625.433 460.251C607.233 472.238 586.853 488.309 567.202 497.13Q568.378 502.701 569.166 508.34ZM190.986 854.672C246.062 902.8 313.538 914.916 384.849 910.143C519.975 901.098 665.015 820.4 766.801 733.54C791.913 712.111 815.779 689.628 837.502 664.723C880.919 614.945 919.314 558.823 935.722 494.032C940.718 474.302 943.708 453.642 942.289 433.259C940.534 408.065 934.925 385.559 924.746 362.482C923.164 358.896 920.823 352.254 917.782 349.763C917.549 349.572 917.282 349.427 917.032 349.26C919.393 354.577 920.133 361.984 920.995 367.823C926.873 407.636 918.942 449.666 904.617 486.918C864.037 592.445 762.095 694.611 669.522 757.076Q655.708 766.396 641.486 775.08Q627.263 783.764 612.662 791.795Q598.061 799.826 583.111 807.187Q568.161 814.549 552.893 821.225C454.615 864.879 320.661 896.884 216.715 856.673C197.042 849.062 179.228 837.767 162.753 824.693C171.782 835.239 180.7 845.304 190.986 854.672ZM519.972 571.213C521.58 583.34 522.022 595.755 522.953 607.956L527.591 661.902C528.617 673.511 528.981 686.202 531.696 697.514C557.09 685.752 580.607 672.517 604.198 657.515C624.685 643.345 645.939 628.29 663.418 610.44C633.478 595.707 601.867 584.548 570.887 572.261Q559.519 567.723 548.278 562.88C545.45 561.677 542.124 559.765 539.189 559.025C532.567 562.724 526.659 567.525 519.972 571.213ZM639.794 352.224C574.33 354.721 489.537 381.256 435.983 419.545L439.463 423.919C460.746 411.679 482.178 400.096 504.894 390.679C557.93 368.692 626.518 354.144 683.147 369.427C707.261 375.935 733.374 391.238 746.022 413.499C758.628 435.684 756.886 461.716 750.15 485.501C725.896 571.148 647.467 639.783 572.268 681.711C519.821 710.953 462.163 729.833 401.932 732.507C383.133 733.342 364.561 732.972 346.32 727.79C322.413 720.998 299.38 706.618 287.126 684.433C274.392 661.381 274.942 634.856 282.139 610.094C288.283 588.957 298.827 569.212 310.987 550.952Q314.668 545.287 318.562 539.766Q322.455 534.244 326.555 528.874Q330.654 523.504 334.954 518.293Q339.254 513.082 343.748 508.038Q348.243 502.993 352.925 498.123Q357.607 493.252 362.47 488.562Q367.333 483.872 372.37 479.37Q377.407 474.867 382.611 470.559C394.286 460.98 408.118 452.411 418.976 442.191C417.3 440.038 415.68 437.86 413.735 435.938C403.127 441.704 388.491 455.619 378.987 464.006C332.309 505.2 286.653 553.153 268.618 614.346C261.03 640.089 261.007 668.555 274.102 692.553C286.788 715.803 310.1 731.447 335.19 738.663C386.783 753.5 462.5 738.754 511.828 720.727C532.609 713.133 552.929 703.36 572.234 692.575C638.324 655.652 697.294 607.657 736.776 542.223C748.218 523.259 758.215 503.068 764.258 481.69C771.433 456.307 773.347 427.47 760.003 403.733C746.546 379.792 722.097 366.068 696.324 358.946C680.603 354.601 664.504 352.647 648.23 352.188C645.591 352.113 642.378 351.677 639.794 352.224ZM743.436 489.705C722.392 492.851 701.659 497.771 680.874 502.238L603.162 518.336C591.192 520.789 577.865 524.633 565.955 526.314C562.653 532.984 558.471 538.695 554.012 544.605C566.318 550.464 579.208 554.981 591.646 560.511L639.5 579.341C652.627 584.434 666.233 589.364 678.884 595.539C704.117 566.329 723.682 541.568 738.49 505.364C740.208 501.164 743.659 494.288 743.802 489.97L743.436 489.705Z"/>
	<path d="M244.219 472.291Q269.898 479.568 294.707 489.412C288.474 498.064 280.451 505.507 273.699 513.768Q267.489 521.22 261.667 528.978Q255.845 536.737 250.426 544.782Q245.006 552.827 240.004 561.137Q235.001 569.448 230.428 578.002C209.605 617.116 192.449 663.637 206.161 707.923C215.57 738.313 238.798 760.854 266.383 775.364C329.132 808.37 411.635 795.954 477.039 778.039C488.112 775.007 498.964 771.111 509.926 767.691Q510.689 792.885 510.62 818.09C494.057 825.179 461.724 835.573 444.131 837.799C447.752 821.449 450.37 804.889 453.571 788.456L445.094 790.364C439.812 806.466 437.608 823.553 434.854 840.212C411.701 844.378 392.119 848.129 368.449 849.834C370.338 842.247 373.729 834.869 376.553 827.585Q382.115 813.558 386.583 799.146L378.047 799.638C372.692 817.043 363.991 833.44 358.352 850.833C337.653 852.405 317.674 852.202 297.032 850.106C300.437 841.479 305.479 834.011 310.306 826.16Q318.994 812.105 327.257 797.795L320.402 796.534C316.468 802.514 312.224 808.287 308.426 814.36C301.383 825.624 294.855 837.26 287.978 848.635C270.945 847.246 254.751 842.827 238.525 837.699C242.347 831.449 247.504 825.709 252.176 820.079Q262.02 808.339 271.655 796.426Q275.656 791.589 279.563 786.676L273.25 783.953C268.121 790.692 262.201 797.028 256.796 803.574C248.241 813.935 240.045 824.518 231.87 835.177C217.446 831.079 201.094 820.132 189.681 810.822C207.268 796.204 223.568 779.644 240.286 764.012C238.902 762.605 237.423 761.273 235.991 759.913C225.943 767.155 216.976 776.038 207.844 784.381C199.961 791.583 191.621 798.609 184.334 806.407C174.604 798.655 162.809 785.656 156.828 774.719C164.933 770.119 172.511 764.239 180.114 758.854Q197.153 746.866 214.038 734.661L211.237 729.788C201.773 734.655 193.034 741.139 184.348 747.248L153.102 769.325C144.16 756.882 139.386 739.05 136.038 724.172C144.391 719.079 154.235 715.468 163.139 711.368C175.203 705.814 187.039 699.817 199.208 694.483C198.732 692.459 198.552 689.527 197.209 687.95L196.442 688.067L196.613 689.256C186.514 691.21 176.107 697.393 166.872 701.8Q151.124 709.366 135.219 716.598C133.149 699.039 132.784 682.302 136.221 664.826Q167.871 656.212 199.685 648.226Q200.535 644.216 201.532 640.239C180.037 644.926 158.945 650.972 137.764 656.877C141.64 636.913 149.256 617.195 157.27 598.574C177.813 598.24 198.555 594.993 219.088 593.694L221.737 586.143C201.94 586.237 181.467 587.644 161.783 589.921C170.612 571.583 181.455 554.141 192.224 536.9L247.716 541.723C249.232 539.334 251.098 537.145 252.294 534.571L251.409 534.297L250.779 535.071C234.258 530.324 216.081 529.044 198.978 527.912C210.492 511.009 229.814 486.418 244.219 472.291Z"/>
	<path fill="#F0827E" d="M207.953 598.706C210.462 598.404 213.105 598.481 215.636 598.401Q208.207 617.044 202.141 636.174Q176.407 641.884 151.054 649.101L143.558 650.925C147.562 634.322 152.733 618.341 160.606 603.144C176.212 600.808 192.221 599.999 207.953 598.706Z"/>
	<path fill="#F0827E" d="M436.849 792.175C437.74 792.006 438.172 792.022 439.047 792.131C440.188 794.804 432.321 831.176 431.27 836.694C413.573 840.393 396.108 843.408 378.118 845.375C376.955 845.491 376.217 845.609 375.134 845.115C375.066 841.293 389.298 805.756 391.866 798.584C406.925 797.961 422.03 794.735 436.849 792.175Z"/>
	<path fill="#F0827E" d="M245.529 477.337C250.956 478.347 256.5 480.658 261.713 482.471L287.241 491.392Q270.839 510.601 255.436 530.621L250.957 530.088C236.416 527.641 221.765 526.094 207.204 523.847C218.904 507.837 231.807 491.658 245.529 477.337Z"/>
	<path fill="#3F4041" d="M505.137 772.588L505.75 773.065C507.595 778.057 506.44 808.188 506.373 815.716C488.483 823.142 469.327 827.812 450.682 832.925L449.777 832.894C449.197 831.812 449.341 831.606 449.511 830.439C451.623 815.963 455.587 802.013 457.156 787.374C473.583 783.323 489.352 778.691 505.137 772.588Z"/>
	<path fill="#F0827E" d="M332.027 798.428C345.768 799.458 359.257 800.116 373.05 800.12C367.698 816.108 361.371 831.53 354.467 846.91C351.419 847.192 348.365 847.331 345.309 847.484C331.244 847.694 317.246 847.91 303.205 846.854C312.53 830.56 322.388 814.54 332.027 798.428Z"/>
	<path fill="#3F4041" d="M197.122 653.089L197.968 653.129C198.971 655.362 197.925 659.632 197.659 662.146C196.906 669.273 196.864 676.203 197.046 683.355C177.92 692.865 158.352 701.528 139.205 711.042C139.056 710.86 138.868 710.704 138.756 710.497C135.036 703.587 138.405 677.316 139.656 668.436C158.644 662.616 177.876 657.955 197.122 653.089Z"/>
	<path fill="#F0827E" d="M198.477 699.46C199.251 699.797 199.467 700.234 199.824 701.034C201.163 704.043 201.777 707.853 202.786 711.022C204.368 715.99 206.545 720.634 208.842 725.298C201.599 730.211 158.292 762.481 154.047 762.433L153.252 761.386C148.401 750.107 144.412 738.732 140.596 727.072Q169.461 713.107 198.477 699.46Z"/>
	<path fill="#3F4041" d="M194.957 540.978C211.479 543.709 228.861 544.032 245.555 545.112C237.615 557.152 230.757 569.581 223.268 581.873L216.624 582.404C200.748 582.916 184.853 584.135 168.993 585.051C175.991 569.608 185.165 554.792 194.957 540.978Z"/>
	<path fill="#F0827E" d="M243.45 766.898C247.3 768.664 250.936 771.333 254.58 773.518C259.406 776.411 264.356 779.02 269.349 781.609C256.858 798.272 243.115 814.163 230.016 830.364L225.403 828.359C215.254 823.299 205.894 817.492 196.747 810.797C212.51 796.372 227.681 781.321 243.45 766.898Z"/>
	<path fill="#3F4041" d="M283.726 787.821C287.744 788.401 291.949 790.137 295.844 791.335C302.25 793.306 308.528 794.89 315.165 795.861C304.904 811.651 297.268 829.807 284.985 844.099Q280.779 843.567 276.585 842.945C265.707 841.15 255.167 838.403 244.517 835.601C257.334 819.48 270.665 803.745 283.726 787.821Z"/>
	<path fill="#3F4041" d="M216.436 738.445C218.391 740.297 220.019 743.024 221.785 745.112C225.201 749.149 228.896 752.861 232.661 756.568C224.506 764.391 215.834 771.793 207.544 779.5C200.326 786.209 192.898 794.376 184.796 799.932C183.468 799.767 183.185 799.269 182.204 798.435C174.439 791.927 168.402 784.138 162.594 775.91C180.712 763.636 197.915 750.171 216.436 738.445Z"/>
	<path d="M576.989 262.585C577.671 262.499 577.972 262.596 578.621 262.778C579.356 265.428 576.4 273.921 575.841 277.172C573.636 289.975 571.404 305.269 570.188 318.172C558.67 319.859 546.699 324.394 535.814 328.426Q518.046 334.917 500.721 342.515Q483.397 350.112 466.586 358.786C461.268 361.507 455.442 364.033 450.503 367.384C446.158 358.122 441.36 348.814 436.43 339.85C433.886 335.224 430.828 330.847 428.566 326.077C428.887 324.66 429.521 324.569 430.694 323.774C453.313 310.786 476.675 299.973 500.17 288.739C501.423 304.248 505.373 320.109 508.781 335.279C511.063 334.431 513.265 333.442 515.482 332.439C513.827 316.167 514.252 299.575 512.881 283.222C522.712 280.616 532.162 276.867 541.76 273.547Q559.167 267.4 576.989 262.585Z"/>
	<path fill="#F0827E" d="M496.263 295.514C498.081 300.31 498.721 306.086 499.629 311.14Q501.829 323.854 504.272 336.523C486.507 344.06 469.525 352.562 452.532 361.664L449.342 355.954L434.911 326.899C454.901 315.412 475.505 305.506 496.263 295.514Z"/>
	<path fill="#3F4041" d="M570.3 269.044L571.177 269.408C573.917 275.037 567.815 306.449 566.492 313.826C560.728 316.161 554.55 317.887 548.656 319.906L519.775 330.078C516.669 317.787 517.775 299.88 517.557 286.924C534.555 279.567 552.439 273.867 570.3 269.044Z"/>
	<path d="M656.808 246.676C658.124 246.487 658.865 246.399 660.171 246.797L660.683 247.825C658.917 254.964 654.401 262.435 651.522 269.318Q644.231 287.096 637.609 305.133C619.317 307.572 601.196 311.448 583.111 315.043L581.251 315.159C577.646 312.533 584.812 279.306 585.419 272.87C585.815 268.678 585.72 265.015 584.957 260.869C605.566 253.293 634.621 249.968 656.808 246.676Z"/>
	<path fill="#F0827E" d="M653.113 252.219L653.618 252.328C653.671 252.657 653.776 252.983 653.777 253.316C653.781 254.242 635.968 296.697 634.062 301.436C617.474 301.913 601.124 306.38 585.119 310.401L584.452 309.97C583.61 306.125 589.657 270.052 590.636 263.949C611.144 259.191 632.137 254.215 653.113 252.219Z"/>
	<path d="M896.9 407.625C896.969 407.742 897.058 407.85 897.108 407.976C898.139 410.64 897.064 415.445 896.744 418.29C894.824 435.345 892.085 453.697 885.616 469.695C863.808 474.597 841.844 478.74 820.084 483.894C819.466 482.682 819.423 481.856 819.634 480.55C820.404 475.792 822.435 470.886 823.741 466.196Q825.919 458.343 827.134 450.286Q828.349 442.228 828.584 434.082C841 428.658 853.887 424.226 866.501 419.278C876.506 415.353 886.574 410.531 896.9 407.625Z"/>
	<path fill="#F0827E" d="M891.6 414.014C892.159 414.41 892.13 414.247 892.313 414.881C894.596 422.795 885.843 457.59 882.115 465.992C863.902 471.227 844.68 474.697 826.036 478.153L825.203 477.818C824.485 475.59 827.838 466.861 828.66 463.814C831.05 454.942 832.238 445.933 833.143 436.817C839.034 434.022 845.607 432.016 851.698 429.623Q871.585 421.656 891.6 414.014Z"/>
	<path d="M741.293 247.921C755.087 249.702 787.395 256.018 799.243 262.113C800.383 262.699 801.048 263.041 801.478 264.291L800.201 264.678C795.19 270.64 789.143 275.984 783.627 281.512Q770.726 294.456 758.154 307.721L750.099 316.586C735.581 311.969 721.052 307.695 705.906 305.682C710.691 297.015 716.36 288.649 721.579 280.227C728.224 269.505 734.598 258.607 741.293 247.921Z"/>
	<path fill="#F0827E" d="M744.046 252.846C760.737 256.294 777.724 258.304 793.465 265.257C787.855 271.514 781.611 277.243 775.72 283.238C768.683 290.398 761.919 297.849 755.087 305.204L749.21 311.373C737.183 307.527 725.348 304.774 712.889 302.748C721.73 285.373 733.078 268.946 744.046 252.846Z"/>
	<path d="M888.335 345.962C893.635 352.643 897.02 389.622 897.448 399.056C888.334 403.029 878.74 406.171 869.515 409.947C857.057 415.047 844.443 421.028 831.604 425.052C830.567 425.428 830.719 425.515 829.55 425.209C826.692 418.667 828.361 409.23 827.296 402.128C826.314 395.576 823.504 389.573 822.972 382.901C830.753 377.51 839.963 373.697 848.237 369.068C861.689 361.541 874.718 353.176 888.335 345.962Z"/>
	<path fill="#3F4041" d="M884.563 352.053C884.77 352.238 885.008 352.394 885.186 352.607C885.854 353.406 886.331 355.614 886.68 356.671C890.963 369.637 892.251 383.309 893.02 396.861C873.431 403.706 854.287 412.299 835.12 420.26L833.796 420.718C832.376 419.135 832.205 405.311 831.711 402.171C830.745 396.031 829.072 390.087 827.397 384.113C847.224 375.006 865.799 363.134 884.563 352.053Z"/>
	<path d="M691.393 244.226C705.2 243.265 719.464 245.045 733.127 246.857C722.159 266.423 708.602 284.494 698.843 304.739Q693.736 304.411 688.625 304.163C674.478 303.71 660.619 303.907 646.468 304.496Q648.645 297.596 651.32 290.874C654.01 284.228 667.949 253.949 667.716 249.19C667.671 248.253 667.487 246.942 668.252 246.239C671.115 243.608 686.867 244.508 691.393 244.226Z"/>
	<path fill="#3F4041" d="M684.769 249.218C698.63 248.445 712.919 249.626 726.767 250.601C719.007 260.468 712.639 270.822 706.585 281.803C704.235 286.067 699.393 296.949 696.573 300.078C696.026 300.686 694.46 300.515 693.642 300.564Q683.247 299.441 672.792 299.447Q662.337 299.452 651.944 300.587C655.373 291.255 659.789 282.324 663.549 273.124C666.765 265.256 669.052 257.015 673.126 249.519C677.003 249.534 680.894 249.338 684.769 249.218Z"/>
	<path d="M791.887 547.107C811.096 546.587 830.513 546.91 849.74 547.023C839.741 567.306 822.281 588.151 808.246 606.033L804.26 611.058C797.718 609.828 758.865 601.234 755.555 597.159C756.477 592.838 763.328 586.339 766.235 582.769C772.211 575.427 777.551 567.79 782.888 559.974C785.702 555.853 788.408 550.655 791.887 547.107Z"/>
	<path fill="#F0827E" d="M793.459 551.532Q817.86 551.743 842.258 551.286C837.009 564.4 814.492 591.097 805.042 603.201L802.074 606.913Q781.459 601.39 760.771 596.15C772.727 581.912 783.459 567.208 793.459 551.532Z"/>
	<path d="M852.955 294.205C853.457 294.347 853.539 294.359 854.107 294.588C864.776 298.881 881.848 328.294 886.371 338.878C865.896 348.552 846.483 361.104 826.965 372.565C824.487 373.969 822.011 375.208 819.406 376.359C813.735 364.21 807.241 353.849 797.372 344.682L830.61 318.738C838.36 312.726 847.091 307.092 853.549 299.684L852.955 294.205Z"/>
	<path fill="#F0827E" d="M856.321 303.979C865.948 314.286 873.559 324.728 880.066 337.236C861.977 347.019 845.055 358.612 826.659 367.886L821.757 370.506C816.739 360.978 811.255 352.885 804.154 344.811C810.489 339.639 817.077 334.727 823.466 329.612C834.305 320.935 845.044 312.087 856.321 303.979Z"/>
	<path d="M305.459 411.869C315.952 415.248 337.833 431.621 348.056 438.552C332.683 453.269 315.725 465.988 301.652 482.141L296.054 479.987Q274.33 470.737 251.632 464.231C256.111 458.498 261.723 453.231 266.835 448.056Q285.378 429.141 305.459 411.869Z"/>
	<path fill="#3F4041" d="M306.356 416.838C317.705 421.204 331.655 432.503 341.409 439.977C334.126 445.268 327.248 451.372 320.622 457.46C316.269 461.459 305.509 474.335 301.323 476.131C299.839 476.767 298.799 476.162 297.382 475.713C285.07 470.97 272.676 466.57 260.269 462.088C271.068 448.587 292.756 427.612 306.356 416.838Z"/>
	<path d="M636.379 700.801C638.444 702.138 664.49 733.675 666.469 736.751C658.413 741.395 650.851 747.044 643.023 752.073Q625.626 763.248 607.42 773.05L598.67 777.359C594.373 762.145 585.573 748.235 581.818 732.857C601.174 724.049 618.663 712.431 636.379 700.801Z"/>
	<path fill="#3F4041" d="M635.628 705.443C637.944 706.334 641.549 711.983 643.186 714.046C649.172 721.587 655.531 728.583 662.089 735.618C643.908 745.741 626.729 757.566 608.763 768.071C606.216 769.441 603.776 771.032 601.313 772.547C595.934 760.182 591.346 747.416 586.5 734.833C592.174 731.362 598.417 728.56 604.256 725.33C615.182 719.285 625.519 712.773 635.628 705.443Z"/>
	<path d="M569.951 738.456C570.255 738.496 570.371 738.492 570.686 738.665C575.291 741.206 587.047 775.926 589.434 782.715C571.062 792.559 552.184 800.841 533.027 809.002C529.3 810.64 525.498 812.062 521.691 813.499C520.953 796.902 519.819 780.838 517.972 764.332C518.668 763.137 518.98 763.04 520.208 762.396C527.511 758.567 535.467 755.575 542.956 752.082C552.108 747.814 560.946 743.011 569.951 738.456Z"/>
	<path fill="#F0827E" d="M568.543 743.476C574.124 748.076 581.909 772.705 584.847 780.588Q560.866 792.887 536.086 803.484C532.614 805.006 529.07 806.384 525.559 807.815C525.218 793.86 523.14 779.977 522.418 766.04C538.134 759.772 553.841 751.838 568.543 743.476Z"/>
	<path d="M809.232 265.817C823.441 272.111 840.479 280.839 850.576 292.8C831.999 306.552 814.341 321.04 796.761 336.027C795.221 337.157 793.896 338.501 792.532 339.831C782.135 331.404 770.477 325.404 758.875 318.893C764.987 310.241 773.522 302.567 780.95 294.995L809.232 265.817Z"/>
	<path fill="#3F4041" d="M809.463 271.332C818.08 272.688 836.634 286.659 844.241 292.221Q819.946 310.747 796.919 330.826L792.329 335.111C784.179 327.469 774.341 322.458 764.507 317.363Q787.664 295.011 809.463 271.332Z"/>
	<path d="M696.619 655.931C696.799 655.912 696.977 655.873 697.158 655.873C700.868 655.869 730.892 678.781 735.066 682.651C727.076 687.966 720.105 695.48 712.75 701.677C703.159 709.758 693.002 717.169 683.167 724.948C681.577 726.234 679.796 727.309 678.088 728.432C672.675 724.04 667.901 718.543 663.085 713.521Q654.525 704.681 645.821 695.983C653.581 688.239 662.836 682.512 671.561 675.954C680.102 669.536 688.309 662.645 696.619 655.931Z"/>
	<path fill="#F0827E" d="M697.316 660.404C708.314 666.801 718.341 674.88 728.515 682.493C714.09 696.569 697.588 708.719 681.592 720.93C680.813 721.444 679.987 721.881 679.173 722.337C675.44 722.275 655.412 700.223 651.229 696.224C658.214 690.521 665.951 685.565 673.169 680.136C681.473 673.889 689.388 667.117 697.316 660.404Z"/>
	<path d="M881.091 478.612C882.242 479.096 881.842 478.699 882.356 479.737C882.07 482.855 880.237 486.217 879.062 489.154C872.348 505.934 864.481 521.782 855.524 537.478C836.358 536.826 816.771 537.544 797.614 538.389C796.44 537.942 796.934 538.311 796.168 537.238C796.842 531.976 803.793 522.758 806.298 517.684C810.608 508.952 813.268 499.162 818.025 490.7C839.268 487.994 860.168 483.09 881.091 478.612Z"/>
	<path fill="#3F4041" d="M873.863 484.113L875.743 483.922L876.317 484.456C874.986 493.744 858.591 523.965 853.252 532.935Q829.321 533.954 805.375 534.517C804.577 534.51 803.777 534.436 802.981 534.384L802.444 533.695C804.407 528.213 808.091 522.993 810.729 517.762C814.582 510.124 817.678 502.127 820.511 494.065C838.525 491.72 856.133 487.998 873.863 484.113Z"/>
	<path d="M746.725 606.384C762.08 608.91 780.608 615.276 795.063 620.967C786.488 634.195 761.558 656.745 749.057 668.675L744.328 672.853C730.477 666.248 717.579 657.759 704.716 649.438C709.515 642.048 718.482 635.435 724.79 629.072C732.183 621.614 739.037 613.532 746.725 606.384Z"/>
	<path fill="#3F4041" d="M747.266 609.891C760.965 614.604 774.992 618.453 788.738 623.078Q769.087 644.448 748.106 664.514L744.035 668.836C732.463 662.336 721.232 655.251 709.61 648.835C714.716 643.454 720.434 638.526 725.682 633.253C733.191 625.706 740.169 617.815 747.266 609.891Z"/>
	<path fill="#FDFBFA" d="M505.8 481.618C511.124 481.23 516.919 480.873 521.92 483.059Q522.598 483.347 523.244 483.702Q523.89 484.057 524.497 484.476Q525.104 484.894 525.666 485.371Q526.228 485.847 526.739 486.378Q527.25 486.909 527.705 487.489Q528.161 488.068 528.556 488.69Q528.951 489.313 529.281 489.972Q529.611 490.63 529.874 491.319C531.672 496.091 530.561 500.943 528.426 505.398C519.272 524.509 499.519 534.036 480.546 540.616C474.581 542.19 468.774 542.594 463.214 539.308C459.813 537.298 457.696 533.961 456.804 530.158C455.416 524.24 457.704 518.636 460.75 513.653C471.825 495.535 485.486 486.482 505.8 481.618Z"/>
	<path d="M509.37 484.588C514.23 484.278 519.731 484.651 523.942 487.368C525.901 488.632 527.319 490.499 527.806 492.795C528.997 498.412 525.99 504.849 522.897 509.432C512.902 524.238 495.308 533.611 478.128 537.017C473.727 537.249 468.446 537.138 464.458 535.143C462.21 534.018 460.556 532.247 459.772 529.841C458.55 526.093 459.416 522.159 461.216 518.756C468.347 505.272 495.125 489.004 509.37 484.588Z"/>
	<path fill="#FDFBFA" d="M508.946 488.554C513.084 488.343 517.667 488.237 521.238 490.711C522.646 491.687 523.641 493.075 523.929 494.78C524.661 499.125 521.694 504.224 519.264 507.685C509.207 522.008 493.015 530.356 476.121 533.395C474.986 533.429 473.864 533.381 472.732 533.292C470.051 533.082 467.11 532.485 465.345 530.263C464.01 528.583 463.766 526.355 464.058 524.29C464.956 517.942 469.695 513.369 474.448 509.577C475.404 510.476 476.445 511.59 477.609 512.207C487.1 517.237 495.056 497.149 500.65 492.332C503.104 490.219 505.914 489.44 508.946 488.554Z"/>
	<path fill="#EBCFB6" d="M490.814 497.943C491.151 498.01 491.441 498.226 491.746 498.386C491.562 499.784 490.832 500.81 490.048 501.951C487.026 506.354 483.601 508.653 478.361 509.554C477.316 508.922 477.75 509.345 477.086 508.26C478.43 503.881 486.876 500.154 490.814 497.943Z"/>
	<path fill="#FDFBFA" d="M415.679 405.955C443.833 430.05 466.906 460.295 499.72 478.694C490.927 481.571 483.391 484.774 475.963 490.347C470.105 495.147 465.267 500.847 460.65 506.805C447.336 473.318 423.726 444.895 406.952 413.154C409.733 410.616 412.743 408.311 415.679 405.955Z"/>
	<path fill="#FDFBFA" d="M534.998 491.322C535.916 491.4 536.819 491.513 537.724 491.689C542.709 492.66 548.592 495.053 551.278 499.581C553.478 503.29 553.203 507.771 552.159 511.8C547.461 529.93 530.423 545.219 514.776 554.181C499.752 562.786 481.428 569.028 464.147 564.289Q463.114 563.84 462.106 563.337C458.6 561.557 455.619 558.745 454.454 554.904C452.763 549.329 455.096 544.091 457.615 539.219Q459.072 540.414 460.596 541.522C468.938 547.556 478.527 549.722 488.687 548C504.714 545.284 521.867 533.785 531.074 520.485C537.755 510.835 536.984 502.241 534.998 491.322Z"/>
	<path fill="#EBCFB6" d="M531.201 484.726C535.246 484.612 539.449 484.976 543.441 485.627C550.287 486.742 557.67 489.287 561.735 495.278C565.649 501.044 565.446 509.805 564.174 516.43C560.495 535.59 544.665 550.865 529.097 561.285C511.454 573.093 487.547 582.188 466.051 577.693C459.342 576.289 452.883 573.237 449.142 567.228C444.892 560.4 445.649 552.751 447.23 545.296C448.059 541.897 449.889 537.151 452.221 534.526C452.749 533.932 452.763 533.718 453.55 533.681C453.962 537.06 452.103 540.416 451.015 543.527C449.235 548.617 449.217 553.882 451.622 558.788C453.964 563.564 458.237 566.988 463.235 568.684C477.85 573.642 495.892 568.188 509.174 561.814C528.779 552.405 548.439 535.926 555.686 514.799C557.517 509.461 558.341 503.695 555.633 498.474C550.741 489.042 541.602 490.354 533.358 486.971C532.084 486.448 531.743 485.939 531.201 484.726Z"/>
	<path fill="#EBCFB6" d="M747.972 474.678C748.887 477.153 746.52 482.445 745.742 484.918Q657.006 502.581 568.587 521.773L568.01 520.951C567.988 518.197 568.725 515.4 569.239 512.7C589.507 509.274 609.375 504.558 629.427 500.112L699.937 484.877C715.917 481.426 731.902 477.669 747.972 474.678Z"/>
	<path fill="#EBCFB6" d="M468.138 582.425C471.522 582.494 474.898 582.786 478.274 583.034C457.372 616.152 434.582 648.182 413.161 680.988Q403.081 696.48 393.159 712.073C389.83 717.38 386.692 724.078 382.471 728.641C378.717 728.542 375.03 728.357 371.297 727.941C380.395 713.227 390.182 698.956 399.785 684.567C422.514 650.509 445.84 616.756 468.138 582.425Z"/>
	<path fill="#EBCFB6" d="M515.414 573.53C516.162 574.743 516.301 575.795 516.466 577.18C517.814 588.54 518.215 600.098 519.247 611.504L527.25 699.468Q521.511 701.82 515.69 703.96C515.113 703.294 514.916 702.343 514.786 701.483C514.106 696.973 514.041 692.199 513.693 687.646L511.589 661.613Q508.124 619.954 503.895 578.366Q509.698 576.052 515.414 573.53Z"/>
	<path fill="#EBCFB6" d="M783.397 362.911C783.655 362.996 783.923 363.054 784.169 363.167C785.51 363.784 787.045 365.694 788.063 366.805C795.833 375.284 801.296 386.08 804.9 396.921Q788.627 405.087 772.242 413.025C771.383 413.423 770.7 413.51 769.761 413.591C766.215 410.871 765.102 403.371 762.733 399.438C759.316 393.767 754.956 388.804 750.625 383.831C761.263 376.315 772.165 369.502 783.397 362.911Z"/>
	<path d="M774.856 377.55C776.948 377.438 779.147 377.297 781.222 377.652C784.721 378.25 789.326 379.881 791.432 382.946C792.241 384.123 792.849 385.801 792.392 387.216C791.885 388.783 790.504 389.776 789.046 390.371C787.154 391.143 785.154 391.546 783.24 390.675L783.035 389.792C784.294 388.103 785.925 387.43 787.685 386.363C787.828 384.979 787.311 384.727 786.542 383.645C785.953 383.266 785.407 382.639 784.626 383.005C781.101 384.655 777.527 391.549 770.722 391.826C768.748 391.906 766.307 391.048 765.029 389.468C764.248 388.502 763.857 387.63 764.133 386.365C764.998 382.405 771.502 379.203 774.856 377.55Z"/>
	<path fill="#EBCFB6" d="M774.654 381.905C776.106 381.939 777.401 381.789 778.588 382.756L778.616 383.691C777.352 385.386 775.941 386.211 774.143 387.285C772.785 387.36 771.426 387.631 770.22 386.883L770.148 386.096C771.267 384.347 773.042 383.178 774.654 381.905Z"/>
	<path d="M777.56 392.363C778.128 392.434 778.682 392.671 779.225 392.85L779.61 393.671C777.627 397 773.914 398.684 770.316 399.65C770.15 399.534 769.979 399.423 769.816 399.303C768.744 398.516 768.2 398.342 768.02 396.978C770.829 395.191 773.993 394.96 776.908 392.844L777.56 392.363Z"/>
	<path fill="#FDFBFA" d="M393.799 352.671C397.349 352.335 401.694 352.432 404.738 354.542C406.61 355.84 407.691 357.792 408.064 360.015C409.085 366.087 405.967 372.841 402.501 377.709C395.05 388.174 384.105 393.917 371.618 395.926C367.94 396.144 363.27 395.555 360.229 393.336C358.327 391.949 357.229 390.008 356.952 387.677C356.185 381.231 360.915 373.5 364.759 368.613C372.221 359.125 381.949 354.145 393.799 352.671Z"/>
	<path fill="#F0827E" d="M471.903 737.637L473.231 737.506L473.8 738.054C474.802 743.964 470.745 757.986 469.195 764.281Q442.61 771.111 415.41 774.797L414.267 774.858L413.714 774.21C413.54 767.639 420.883 752.524 423.552 746.145C439.984 744.369 455.777 741.165 471.903 737.637Z"/>
	<path fill="#EBCFB6" d="M443.423 567.378C445.477 568.64 446.689 571.078 447.905 573.084C422.316 590.837 395.171 606.796 368.733 623.274C342.097 639.875 315.976 657.077 288.715 672.668C288.293 672.811 287.795 672.744 287.351 672.743C285.83 671.287 285.283 669.166 284.548 667.236C298.903 657.89 313.519 648.987 327.998 639.837L443.423 567.378Z"/>
	<path fill="#EBCFB6" d="M714.393 326.973C729.384 330.063 743.292 335.085 756.976 341.893C749.225 350.227 740.872 357.628 732.32 365.11L729.537 367.819C717.541 361.195 705.364 356.914 692.215 353.354C699.429 344.404 707.141 335.886 714.393 326.973Z"/>
	<path d="M726.381 334.579C728.76 334.563 730.762 335.126 732.87 336.23C734.649 337.162 736.433 338.327 736.942 340.395C737.173 341.338 736.902 342.331 736.337 343.113C734.068 346.257 730.013 346.612 726.51 347.375C725.416 349.449 724.469 351.935 722.203 352.956C718.163 354.775 712.499 351.542 708.681 350.009C707.777 349.455 708.109 349.849 707.737 348.784C708.536 347.712 708.965 347.085 710.207 346.494C713.001 346.813 714.786 348.889 717.315 349.79C719.152 350.444 720.758 350.052 722.441 349.22L722.616 348.582C720.561 346.276 716.259 346.646 714.38 343.935C713.772 343.056 713.802 342.087 714.28 341.153C716.205 337.398 722.605 335.639 726.381 334.579Z"/>
	<path fill="#EBCFB6" d="M723.858 338.506C726.218 338.436 728.254 338.939 730.178 340.33C730.748 341.44 730.917 341.671 730.84 342.898L730.11 342.948L729.017 340.983L728.236 340.738C727.199 341.396 726.247 341.991 725.047 342.301C723.361 342.736 721.044 342.751 719.537 341.815L719.437 340.974C720.628 339.582 722.201 339.145 723.858 338.506Z"/>
	<path fill="#EBCFB6" d="M550.784 548.361C562.633 552.249 574.426 557.792 586.021 562.453C615.866 574.45 645.582 587.075 675.838 597.994C673.268 600.864 670.508 603.586 667.823 606.35C665.97 606.562 662.908 605.02 661.201 604.353C646.268 598.517 631.62 591.874 616.754 585.859C599.334 578.811 581.648 572.428 564.3 565.196C557.181 562.228 549.932 559.258 543.128 555.613L550.784 548.361Z"/>
	<path fill="#EBCFB6" d="M809.256 431.953C809.687 431.943 810.113 432.167 810.516 432.311C813.129 438.896 806.96 465.346 805.239 473.238C793.998 475.197 782.885 477.908 771.616 479.847C770.706 480.048 770.354 480.059 769.496 479.684C769.404 474.735 770.994 469.166 771.795 464.259Q773.519 453.849 774.601 443.352Q792.101 438.177 809.256 431.953Z"/>
	<path d="M802.433 443.436L803.174 444.095C803.462 446.65 802.882 449.18 802.475 451.7C796.017 456.159 789.763 460.244 781.613 458.812C781.387 458.579 781.153 458.353 780.936 458.111C779.858 456.913 778.884 455.543 779.221 453.824C780.287 448.381 792.419 447.573 796.787 446.092C798.73 445.433 800.614 444.38 802.433 443.436Z"/>
	<path fill="#EBCFB6" d="M790.912 451.115C791.801 451.048 792.631 451.155 793.516 451.238C794.258 451.308 793.928 451.155 794.463 451.801C794.381 451.937 794.315 452.084 794.216 452.209C792.575 454.256 788.666 454.984 786.208 455.538C784.889 455.618 783.961 455.493 782.694 455.201L782.458 454.545C784.498 452.428 788.112 451.729 790.912 451.115Z"/>
	<path d="M796.715 460.535C797.155 460.474 797.835 460.368 798.263 460.372C799.536 460.383 799.731 460.53 800.542 461.397L800.395 462.477C799.84 463.195 799.316 463.657 798.554 464.152C795.924 465.858 790.771 468.748 787.741 469.035C786.403 469.161 784.435 468.528 783.124 468.215C781.479 467.492 779.631 466.812 778.69 465.207L779.019 464.34C782.325 462.912 786.049 463.136 789.545 462.51C791.958 462.078 794.371 461.251 796.715 460.535Z"/>
	<path fill="#EBCFB6" d="M574.355 331.572C575.248 331.475 575.601 331.52 576.446 331.721C577.148 335.639 570.395 353.436 568.868 358.215Q544.457 364.776 520.622 373.191C520.159 373.367 519.708 373.281 519.22 373.262C517.301 370.401 520.567 351.061 521.146 346.457C526.183 344.789 531.463 343.729 536.561 342.225C549.154 338.511 561.568 334.617 574.355 331.572Z"/>
	<path d="M552.185 345.258C555.782 343.063 559.4 338.907 563.65 338.125C564.924 337.89 565.48 338.165 566.535 338.829C567.029 339.654 567.307 340.335 567.397 341.29C567.739 344.912 565.366 347.876 563.212 350.515C562.167 349.637 561.349 349.249 561.179 347.762C560.957 345.825 562.408 343.161 563.133 341.391C560.248 343.265 557.392 345.128 554.78 347.375C553.005 348.901 551.361 350.939 549.44 352.239C548.675 352.757 547.777 352.974 546.889 353.173C547.849 354.234 548.648 354.212 550.052 354.279C554.135 354.473 558.628 353.744 562.498 352.518C562.474 354.141 562.744 355.155 561.481 356.409C560.144 357.738 557.017 358.301 555.233 358.833C552.41 357.958 549.594 357.031 546.732 356.291C544.076 359.376 532.566 366.057 528.412 366.524C527.468 366.63 526.89 366.559 526.003 366.284C525.078 365.226 524.888 364.661 524.928 363.233C524.976 361.479 525.805 360.037 526.91 358.729L526.84 358.406C526.046 357.137 525.536 356.194 525.25 354.688C527.424 351.278 541.034 346.092 545.258 344.241L552.185 345.258Z"/>
	<path fill="#EBCFB6" d="M526.84 358.406C530.209 356.242 533.64 354.413 537.227 352.638L535.722 358.895C534.329 360.185 532.982 361.718 531.112 362.237C528.918 361.724 528.413 360.123 526.91 358.729L526.84 358.406Z"/>
	<path fill="#EBCFB6" d="M260.049 669.005C261.886 670.932 262.775 676.573 263.594 679.158C265.519 685.23 268.104 691.077 270.609 696.926C259.375 705.249 247.014 711.597 235.337 719.195C229.295 708.481 225.784 697.197 223.128 685.267C235.364 681.257 248.113 674.311 260.049 669.005Z"/>
	<path d="M234.035 694.17C233.799 691.733 233.36 688.798 234.046 686.419C234.464 684.972 235.203 684.32 236.497 683.662C238.42 684.706 238.436 686.767 240.114 687.92C240.486 688.175 240.554 688.181 240.987 688.048C243.199 687.372 244.514 683.854 245.629 682.01C246.452 680.649 247.116 680.085 248.642 679.706C249.62 680.655 249.443 681.649 249.604 682.965C250.288 683.017 253.202 679.098 254.23 678.393C255.72 677.371 256.918 677.313 258.647 677.57C259.699 678.384 259.973 678.326 260.363 679.657C258.792 683.207 258.546 686.105 257.602 689.721C256.361 694.471 253.037 696.448 249.14 698.879C249.556 700.949 249.858 702.505 249.032 704.513C247.714 706.045 245.762 706.613 243.937 707.371L240.542 708.119C236.551 706.436 237.427 703.67 235.504 700.514C234.587 699.009 232.815 699.053 231.233 698.553L230.732 697.475C231.372 695.82 232.642 695.233 234.035 694.17Z"/>
	<path fill="#EBCFB6" d="M240.542 708.119C242.043 705.225 239.966 703.866 240.644 701.294C241.969 700.066 243.703 699.765 245.397 699.28C244.959 701.984 244.368 704.663 243.937 707.371L240.542 708.119Z"/>
	<path fill="#EBCFB6" d="M253.308 684.897L253.761 685.679C253.832 686.869 254.045 688.357 253.585 689.482C252.343 692.523 248.227 693.165 245.409 693.909C244.024 694.275 243.33 694.763 242.268 695.728C241.143 696.75 240.355 697.284 238.959 697.868L238.837 697.254C238.358 694.765 238.063 693.452 239.56 691.237C241.312 690.578 242.118 691.277 243.911 691.572C245.771 691.879 251.483 686.234 253.308 684.897Z"/>
	<path fill="#EBCFB6" d="M713.62 387.423C715.774 388.336 717.733 389.966 719.642 391.312C709.769 399.849 698.485 406.957 687.607 414.129L652.091 437.71L605.995 468.427C593.544 476.673 580.987 485.19 567.73 492.081C566.884 492.4 566.402 492.424 565.514 492.452C563.724 491.57 562.823 489.903 561.729 488.306C589.855 470.453 617.296 451.61 645.044 433.185C667.966 417.964 691.187 403.387 713.62 387.423Z"/>
	<path fill="#EBCFB6" d="M711.264 586.017C719.999 589.017 729.048 591.114 738.004 593.343C726.163 607.632 713.052 620.417 699.593 633.141L696.432 636.101C689.458 632.089 682.429 628.204 675.736 623.729C688.373 611.897 699.788 598.953 711.264 586.017Z"/>
	<path d="M714.596 594.656C714.884 594.679 715.175 594.682 715.462 594.725C717.276 594.996 719.765 595.711 720.825 597.342C723.859 602.01 715.512 610.838 714.158 615.614C714.095 615.835 714.037 616.056 713.977 616.277C704.83 613.846 706.291 620.068 700.158 622.057C697.097 623.05 687.818 624.046 685.141 622.216C684.127 621.523 684.092 621.102 684.007 620.003C686.155 617.835 690.359 619.271 693.246 619.066C694.803 618.956 696.385 618.497 697.895 618.114L698.311 617.664L698.16 616.781C695.245 614.296 691.827 613.403 688.22 612.402C691.153 611.139 694.336 608.116 697.151 607.365C702.347 605.98 707.079 611.726 712.717 608.9C714.732 607.89 716.275 605.825 716.956 603.704C717.466 602.117 717.214 601.175 716.452 599.751C713.381 598.022 709.693 600.835 706.52 601.415C705.351 601.628 704.632 601.657 703.639 600.966C703.716 600.707 703.758 600.437 703.868 600.191C705.547 596.436 711.029 595.243 714.596 594.656Z"/>
	<path fill="#F0827E" d="M338.904 744.35C353.14 748.162 366.911 747.913 381.414 748.853Q378.765 755.731 375.891 762.518C374.468 765.845 370.751 776.286 367.537 777.57C352.741 777.62 338.451 777.089 323.887 774.204C327.898 764.014 333.848 754.075 338.904 744.35Z"/>
	<path fill="#EBCFB6" d="M567.242 700.049C571.89 704.315 574.783 713.46 577.044 719.175Q552.941 732.912 527.303 743.51L522.048 745.819C520.719 738.106 519.239 730.382 518.244 722.619C534.946 716.006 551.177 708.073 567.242 700.049Z"/>
	<path d="M549.564 713.919C551.464 713.998 553.928 714.243 555.166 715.896C556.872 718.175 555.861 721.446 555.332 723.968C558.703 721.985 561.918 720.773 565.656 719.701C565.148 720.335 564.648 720.959 564.078 721.539C560.622 725.051 557.329 727.048 552.278 726.934C552.062 726.929 551.845 726.914 551.629 726.904L551.388 729.423C546.806 730.883 540.73 731.991 536.097 730.497C535.084 729.489 535.142 729.574 535.118 728.142C537.685 724.828 542.315 728.017 545.664 726.252C545.152 724.032 544.146 720.514 544.846 718.319C545.549 716.117 547.731 715.074 549.564 713.919Z"/>
	<path fill="#EBCFB6" d="M285.472 716.395C289.948 717.907 303.862 729.757 309.948 733.708C306.156 738.392 289.666 759.288 286.04 761.335C285.126 761.851 284.788 761.461 283.83 761.178C274.003 756.468 265.148 750.984 256.623 744.168Q263.11 736.509 270.341 729.548Q277.572 722.587 285.472 716.395Z"/>
	<path d="M285.972 726.574C286.816 726.468 287.661 726.373 288.511 726.337C291.923 726.194 296.691 727.829 299.169 730.225C300.262 731.283 300.947 732.712 300.7 734.274C300.122 737.937 295.104 737.446 292.835 739.52C290.031 742.083 291.561 745.173 290.776 748.131C289.925 751.336 285.565 753.648 283.018 755.439L281.749 756.221C280.721 756.246 280.462 756.35 279.495 755.873C275.402 753.857 271.091 749.056 269.716 744.735C268.872 742.085 269.275 739.445 270.568 737.01C273.591 731.317 280.023 728.225 285.972 726.574Z"/>
	<path fill="#EBCFB6" d="M285.076 731.55C285.812 731.519 286.544 731.493 287.28 731.518C289.66 731.596 290.865 733.277 292.396 734.88L287.923 737.78C287.536 741.132 286.87 744.353 286.117 747.64C284.618 748.812 282.743 750.224 280.799 750.364L280.326 749.835C281.25 749.042 281.742 748.72 282.302 747.625C280.975 746.331 278.003 746.412 276.163 745.789L276.238 744.882C278.533 743.507 281.343 742.081 283.297 740.259C284.414 739.218 284.487 738.563 284.571 737.095L283.89 736.555C280.089 736.764 275.542 740.575 272.397 742.68C272.985 741.417 273.564 740.126 274.244 738.909C276.876 734.201 280.153 732.889 285.076 731.55Z"/>
	<path fill="#EBCFB6" d="M774.988 510.784C780.796 510.458 786.652 510.431 792.469 510.282C786.652 524.414 778.802 536.815 770.473 549.533C765.813 549.442 761.126 549.006 756.473 548.71C750.662 548.416 744.879 547.851 739.087 547.305Q749.381 529.796 758.129 511.466L774.988 510.784Z"/>
	<path d="M761.119 520.584C764.112 520.404 770.172 519.79 772.465 522.228C773.137 522.942 773.472 523.433 773.497 524.412C773.559 526.788 772.09 527.981 770.552 529.576C771.996 530.548 773.196 531.272 774.094 532.792C774.178 534.015 774.366 534.761 773.536 535.801C771.674 538.133 767.643 538.759 764.87 539.233Q762.946 539.352 761.019 539.432C758.461 539.533 754.594 539.186 752.848 536.968C752.154 536.087 751.807 535.286 752.195 534.171C753.163 531.391 756.838 530.505 759.299 529.63C758.036 528.783 757.131 528.058 756.186 526.861C756.011 526.051 755.73 525.527 756.044 524.718C756.87 522.596 759.239 521.589 761.119 520.584Z"/>
	<path fill="#EBCFB6" d="M761.545 532.059C762.921 531.987 764.525 531.813 765.892 531.984C767.239 532.154 768.036 532.422 768.922 533.438L768.289 534.362C766.127 535.523 763.78 535.428 761.38 535.56C758.693 535.682 756.028 536.476 753.415 537.085C756.07 535.32 758.811 533.698 761.545 532.059Z"/>
	<path fill="#EBCFB6" d="M760.773 524.171C763.105 523.945 765.903 523.388 768.086 524.388C769.036 525.781 768.763 525.958 768.488 527.558C767.215 527.564 765.991 527.522 764.727 527.353C762.805 527.096 761.749 526.77 760.547 525.212L760.773 524.171Z"/>
	<path fill="#EBCFB6" d="M656.931 320.742C662.798 320.808 668.628 320.897 674.482 321.321C668.825 331.232 662.039 340.14 654.879 348.993Q642.413 348.903 629.949 349.147Q621.971 349.397 614.022 350.125C617.957 340.79 622.762 331.769 627.045 322.58C636.945 321.278 646.959 320.968 656.931 320.742Z"/>
	<path d="M633.575 324.385C634.225 325.191 634.899 325.951 635.587 326.723C636.783 327.313 637.471 327.226 638.744 327.055C640.067 326.877 641.249 326.777 642.583 326.797C644.129 327.371 644.827 328.62 645.758 329.898C649.132 328.313 657.071 323.993 660.797 325.702C661.982 326.245 662.447 327.085 662.715 328.316C663.001 329.626 662.704 330.468 661.917 331.461C658.933 332.03 655.975 329.796 652.852 330.279C650.856 330.588 649.92 331.662 648.848 333.223C649.133 334.819 651.682 336.61 652.7 338.098C652.879 339.528 652.832 339.535 652.075 340.772C647.676 343.237 642.405 343.444 637.46 343.49C634.642 343.517 629.523 343.856 627.462 341.831C627.664 340.634 627.818 340.756 628.671 339.986C630.313 339.749 631.934 339.49 633.474 338.846C636.112 337.743 642.33 334.642 643.418 331.955C640.819 329.452 634.867 333.102 631.463 331.477C630.741 331.133 630.795 330.726 630.543 330.033C630.892 327.808 632.306 326.183 633.575 324.385Z"/>
	<path fill="#EBCFB6" d="M267.369 597.688L268.747 597.569L269.335 598.077C269.147 602.171 267.187 607.018 266.064 610.983C263.973 618.372 261.887 625.731 260.223 633.231Q243.626 636.901 227.2 641.272L225.578 641.251L225.034 640.378C224.652 632.208 233.838 610.266 236.954 602.072C247.201 601.25 257.228 599.29 267.369 597.688Z"/>
	<path d="M250.4 602.42C251.112 602.647 251.429 603.007 251.979 603.496C252.32 604.884 252.533 605.961 253.493 607.078C254.621 607.412 256.011 607.723 256.969 608.422C258.062 609.219 258.825 610.755 258.776 612.107C258.638 615.887 254.575 619.305 252.066 621.752C253.088 622.514 254.271 623.28 255.155 624.199C256.081 625.161 256.315 625.829 256.287 627.123C255.146 628.281 253.987 628.862 252.498 629.503C248.41 631.262 235.924 635.416 231.789 633.305C231.152 632.979 231.266 632.484 231.133 631.85L232.126 630.449C236.451 629.341 240.897 628.597 245.151 627.241C247.099 626.621 250.206 625.954 251.13 624.153L251.136 624.979L251.707 624.299C247.032 623.077 238.582 625.912 234.958 621.712C234.223 620.86 234.197 619.855 234.525 618.822C235.086 617.057 244.593 606.579 246.47 604.861C247.57 603.855 249.094 603.128 250.4 602.42Z"/>
	<path fill="#EBCFB6" d="M246.711 610.876C249.41 611.523 252.079 612.304 254.753 613.045L247.423 619.61C246.063 620.397 244.219 621.069 242.654 621.137C242.165 620.785 241.752 620.698 241.66 620.044C241.204 616.806 244.734 613.101 246.711 610.876Z"/>
	<path fill="#3F4041" d="M257.979 638.172L259.025 638.344C260.225 641.209 259.29 659.967 259.589 665.117L223.62 680.747L222.802 680.094C219.692 671.696 221.868 655.232 223.637 646.287C235.183 643.964 246.273 639.986 257.979 638.172Z"/>
	<path fill="#3F4041" d="M736.562 551.458C746.916 552.057 757.251 552.965 767.604 553.585C761.669 566.241 751.198 577.63 742.472 588.491C742.348 588.594 742.234 588.713 742.098 588.8C738.376 591.194 718.179 585.087 712.854 584.122C720.884 573.311 728.763 562.441 736.562 551.458Z"/>
	<path fill="#3F4041" d="M515.434 349.509C517.382 353.014 514.549 370.429 513.802 375.035C501.484 380.143 489.327 385.754 477.232 391.367L477.05 392.181L476.656 391.237C475.557 391.904 474.432 392.371 473.246 392.854L472.686 392.339C471.264 385.074 470.848 377.414 470.159 370.048C475.103 368.157 479.955 365.564 484.763 363.328C494.921 358.604 505.101 353.841 515.434 349.509Z"/>
	<path fill="#EBCFB6" d="M291.047 514.514C299.806 516.882 309.553 517.347 318.552 518.808C315.114 522.675 312.115 527.243 309.015 531.399C302.611 539.986 295.897 548.561 290.661 557.928C280.777 556.635 270.369 556.721 260.388 556.37C263.099 551.929 266.11 547.665 269.039 543.365L278.905 530.036C284.717 533.05 290.796 533.355 297.177 533.888C300.001 530.097 305.929 525.398 307.142 520.887C303.442 517.764 296.94 529.027 292.494 529.261L291.874 528.597C291.886 525.507 294.052 523.019 294.306 519.926C290.657 519.682 286.156 527.451 281.61 528.145L281.483 527.305C283.736 522.431 287.521 518.488 291.047 514.514Z"/>
	<path d="M286.041 535.055L288.237 535.027C288.412 535.152 288.584 535.281 288.761 535.403C289.035 535.591 289.316 535.769 289.591 535.957C291.767 537.447 293.354 537.72 295.902 538.032C290.346 542.268 274.814 553.629 268.252 553.85L268.083 552.695C270.201 547.294 280.509 542.727 285.307 539.818C283.58 540.233 281.773 540.752 280.012 540.97C278.726 541.129 277.555 541.087 276.505 540.251L276.676 539.281C279.482 536.625 282.404 536.045 286.041 535.055Z"/>
	<path fill="#EBCFB6" d="M441.219 536.188C442.134 536.038 442.947 535.919 443.88 535.956C444.815 535.993 444.685 536.143 445.257 536.792C445.404 539.016 444.015 541.402 443.149 543.422C426.938 544.544 410.858 547.523 394.803 549.963Q354.302 556.418 313.634 561.717C312.628 561.875 311.497 562.179 310.509 561.845C309.858 561.624 310.061 561.508 309.795 560.717C310.495 557.995 312.744 555.609 314.405 553.377C356.116 546.102 399.155 541.148 441.219 536.188Z"/>
	<path fill="#3F4041" d="M258.046 560.381C267.746 560.986 277.461 561.369 287.155 562.056C281.948 572.487 276.504 582.678 271.819 593.376L264.884 594.098Q251.629 596.068 238.427 598.365C244.328 585.181 250.615 572.782 258.046 560.381Z"/>
	<path fill="#EBCFB6" d="M363.491 442.861C370.416 445.699 376.524 450.857 382.347 455.472Q372.766 464.6 362.991 473.521C359.414 476.82 355.649 480.94 351.49 483.5C350.23 484.276 349.78 484.333 348.347 484.33Q337.687 479.903 327.544 474.394Q345.191 458.256 363.491 442.861Z"/>
	<path d="M364.929 450.45C367.528 451.146 369.945 454.534 371.736 456.46C369.828 458.486 367.707 461.152 364.833 461.645L364.285 460.951C364.481 458.771 365.715 457.126 366.827 455.298C360.216 457.222 355.613 460.496 350.288 464.737C351.949 464.155 353.62 463.546 355.314 463.069C357.317 462.505 358.677 462.562 360.525 463.571C361.225 464.58 361.517 464.871 361.484 466.153C361.434 468.118 359.904 470.106 358.519 471.38C355.451 474.204 352.184 474.966 348.129 474.724L347.237 473.683C348.393 470.584 355.651 467.827 358.592 466.334C354.87 466.424 351.173 466.645 347.46 466.909C346.138 469.136 344.795 471.443 342.727 473.043C341.329 473.424 340.704 473.43 339.316 473.01C338.308 472.078 338.209 472.082 338.001 470.742C339.44 466.6 344.291 467.834 346.468 465.223C347.342 464.174 347.578 462.28 348.486 461.124C352.1 456.524 359.835 453.227 364.929 450.45Z"/>
	<path fill="#EBCFB6" d="M645.78 649.408C651.729 651.83 657.837 660.306 662.049 664.991C650.783 676.416 626.13 692.596 611.665 699.776C608.16 693.524 603.735 687.657 599.859 681.611C606.538 677.036 613.299 672.394 620.342 668.4C618.286 670.525 616.016 672.683 614.244 675.049C612.496 677.381 611.536 679.419 611.981 682.34C612.321 682.729 612.81 683.382 613.259 683.677C614.43 684.445 614.763 684.47 616.051 684.242C617.998 682.117 616.558 678.028 618.585 675.499C620.336 673.314 623.872 671.444 626.596 671.117C627.639 670.991 627.208 670.904 628.063 671.539C628.054 674.7 624.831 677.525 625.321 680.647C625.439 681.399 625.903 681.504 626.468 681.921C630.413 681.571 629.493 675.149 632.461 673.524L633.161 674.175C633.811 676.784 632.809 679.418 632.9 682.088L633.576 682.292C635.367 681.436 637.454 680.566 638.208 678.55C639.336 675.532 636.494 671.806 635.73 668.959C635.383 667.664 635.706 667.11 636.363 666.018C637.122 665.592 637.704 665.283 638.582 665.177C640.768 664.912 641.63 665.246 643.327 666.638C644.236 667.384 644.914 667.959 646.024 668.397L646.921 667.99C647.429 666.857 647.672 666.134 647.251 664.908C646.79 663.561 645.469 662.095 644.215 661.434C639.566 658.984 634.026 663.584 629.84 665.217C626.941 666.348 623.674 666.978 620.685 667.934C628.907 661.595 637.457 655.623 645.78 649.408Z"/>
	<path fill="#3F4041" d="M513.542 724.522C513.723 724.617 513.899 724.729 514.046 724.871C516.873 727.586 518.279 743.266 518.705 747.577C512.037 749.602 505.619 752.429 499.103 754.89C492.563 757.36 485.927 759.47 479.25 761.537L473.635 763.171Q476.04 749.348 479.319 735.707C490.965 732.509 502.325 729.006 513.542 724.522Z"/>
	<path fill="#EBCFB6" d="M588.335 371.182L589.219 371.147L589.668 371.738C588.624 377.487 580.224 392.244 577.323 398.405C564.416 425.81 552.486 454.267 537.329 480.506C535.197 480.666 533.013 480.561 530.874 480.55C529.927 480.406 530.416 480.576 529.462 479.903C529.536 477.874 530.461 476.1 531.313 474.292C535.406 465.611 540.219 457.283 544.41 448.651Q562.747 411.042 579.628 372.757Q583.958 371.841 588.335 371.182Z"/>
	<path fill="#3F4041" d="M619.789 323.203C621.053 323.049 621.214 322.852 622.402 323.444C621.326 326.947 618.959 330.403 617.246 333.661Q612.85 342.2 608.547 350.786C598.865 353.305 588.351 354.622 578.489 356.492C577.087 356.726 575.981 356.957 574.574 356.563C574.227 350.813 579.588 336.649 581.374 330.266C593.966 327.357 606.953 324.715 619.789 323.203Z"/>
	<path fill="#3F4041" d="M411.114 747.25C413.656 746.964 416.28 746.965 418.838 746.848C416.255 756.788 412.168 766.525 408.016 775.905C399.122 776.722 390.183 777.456 381.253 777.638C378.671 777.815 376.073 777.876 373.486 777.985C376.89 767.93 381.799 758.247 386.03 748.511C394.395 748.489 402.773 747.812 411.114 747.25Z"/>
	<path fill="#EBCFB6" d="M465.331 373.022C467.448 375.66 468.062 391.621 468.555 395.98C461.288 399.489 453.865 403.658 447.088 408.048C443.658 410.27 440.406 412.909 436.887 414.969C435.746 415.637 435.351 415.945 434 415.976L433.158 414.879C430.68 407.976 428.963 400.872 427.125 393.78C438.996 385.367 452.274 379.336 465.331 373.022Z"/>
	<path d="M460.545 383.933C461.496 384.035 462.175 384.294 463.064 384.625L463.396 385.444C461.141 389.307 454.286 390.274 452.705 392.309C451.785 393.493 452.358 396.783 450.98 398.506C448.861 401.156 444.265 402.484 441.558 404.993C441.387 405.152 441.219 405.314 441.05 405.475C440.012 404.414 439.089 403.094 438.457 401.749C437.587 399.896 437.312 398.234 438.132 396.29C440.72 390.152 454.458 386.352 460.545 383.933Z"/>
	<path fill="#EBCFB6" d="M445.094 392.891C446.005 392.955 446.785 392.912 447.582 393.42C448.207 393.819 447.97 393.805 448.094 394.727C447.346 396.331 446.23 397.119 444.862 398.197C443.616 398.125 442.878 397.999 441.768 397.418L441.484 396.495C442.305 394.77 443.575 393.987 445.094 392.891Z"/>
	<path fill="#3F4041" d="M805.851 400.508C809.736 404.528 810.317 421.328 810.774 427.325Q793.029 433.397 775.161 439.098C772.634 432.67 771.872 424.804 770.604 417.983C782.132 411.649 793.956 406.108 805.851 400.508Z"/>
	<path fill="#3F4041" d="M324.313 478.546C332.127 481.315 339.597 484.761 347.119 488.227Q341.513 493.61 336.216 499.296C332.359 503.501 326.911 511.217 322.327 514.101C321.132 514.852 319.815 514.397 318.517 514.133C310.452 512.777 302.171 512.076 294.024 511.365C303.702 499.964 313.407 488.797 324.313 478.546Z"/>
	<path fill="#3F4041" d="M314.206 735.317C321.024 738.12 327.815 740.99 334.789 743.388Q326.869 758.263 319.559 773.447L312.849 771.794C304.718 770.08 297.446 767.764 289.999 764.053C297.665 754.148 305.994 744.767 314.206 735.317Z"/>
	<path fill="#3F4041" d="M802.833 477.683L803.443 478.48C803.354 485.866 797.246 499.103 794.521 506.205C783.358 507.209 771.842 507.253 760.627 507.532L760.253 507.096C760.352 503.729 766.541 489.14 767.915 484.346C779.67 482.643 791.172 479.856 802.833 477.683Z"/>
	<path fill="#3F4041" d="M679.198 322.016C689.242 323.583 700.277 324.277 710.64 325.775C703.795 334.648 696.645 342.948 689.062 351.199C688.959 351.296 688.871 351.412 688.753 351.491C687.698 352.197 686.982 352.284 685.722 352.23C682.144 352.077 678.334 351.054 674.771 350.504C669.743 349.728 664.692 349.336 659.623 348.94C666.537 340.251 672.872 331.135 679.198 322.016Z"/>
	<path fill="#FDFBFA" d="M410.138 354.784C414.019 356.081 418.427 357.006 420.599 360.831C422.377 363.961 422.103 367.69 421.135 371.031C417.275 384.36 406.158 395.284 394.28 401.815C383.825 407.564 371.983 411.443 360.179 408.062C359.633 407.692 359.607 407.696 359.148 407.317C356.881 405.443 353.469 400.043 353.651 396.941C353.736 395.496 354.049 395.389 355.107 394.559C356.084 394.708 355.906 394.556 356.572 395.003C358.261 396.137 359.817 397.545 361.676 398.41C367.944 401.325 376.604 399.742 382.874 397.456C393.894 393.438 404.466 385.157 409.371 374.304C412.333 367.749 412.635 361.536 410.138 354.784Z"/>
	<path fill="#3F4041" d="M272.524 700.894C272.709 700.922 272.902 700.92 273.08 700.977C275.662 701.804 281.629 710.896 283.472 713.407C279.516 715.837 276.021 718.827 272.624 721.977C269.35 725.013 256.015 740.272 253.15 740.808L251.435 739.542C246.272 734.492 241.775 729.364 237.517 723.535Q254.862 711.969 272.524 700.894Z"/>
	<path fill="#3F4041" d="M760.223 344.326C766.885 345.905 776.063 354.399 781.532 358.886C770.789 364.675 760.911 371.531 750.911 378.483L747.306 381.055C742.833 376.742 737.839 373.226 732.763 369.677C742.305 361.699 751.021 352.696 760.223 344.326Z"/>
	<path fill="#F0827E" d="M353.1 380.892L353.414 380.963C353.929 381.735 350.052 395.418 350.421 398.838C351.411 408.03 357.864 413.803 364.61 419.229Q360.237 423.218 355.918 427.266C352.407 424.744 348.697 422.437 345.095 420.044Q333.198 412.222 321.431 404.206Q336.576 391.613 353.1 380.892Z"/>
	<path fill="#3F4041" d="M672.194 627.336C676.243 627.623 690.243 636.155 694.586 638.587Q682.39 649.389 669.519 659.376L665.54 662.693C660.014 657.226 654.63 651.6 649.182 646.055C657.212 640.185 664.664 633.829 672.194 627.336Z"/>
	<path fill="#3F4041" d="M595.634 683.898L596.849 684.131C601.616 688.745 604.891 696.055 608.171 701.778Q595.283 708.528 582.75 715.918L581.774 716.374C578.487 715.148 572.611 701.541 570.921 698.121C579.39 693.698 587.498 688.905 595.634 683.898Z"/>
	<path fill="#FDFBFA" d="M425.542 360.28C429.757 362.629 431.516 366.368 433.013 370.73C431.107 382.719 424.039 393.426 415.158 401.468C402.649 412.794 388.896 418.213 372.069 417.338C368.875 416.354 365.978 415.018 362.976 413.562Q365.067 413.582 367.158 413.557C384.159 413.317 401.013 405.081 412.68 392.905C421.987 383.191 425.889 373.71 425.542 360.28Z"/>
	<path fill="#3F4041" d="M391.489 422.9C397.286 425.579 402.503 431.505 407.138 435.818C402.234 439.305 389.523 451.584 385.231 452.804L367.971 440.121Q379.114 430.669 391.489 422.9Z"/>
	<path fill="#FDFBFA" d="M355.783 333.075C358.33 332.851 361.143 333.167 363.606 333.832C365.469 334.335 367.234 335.326 368.122 337.113C368.892 338.662 368.81 340.52 368.275 342.129C366.52 347.402 361.051 350.389 356.406 352.757C353.915 353.487 351.241 353.552 348.75 352.746C346.973 352.172 345.569 350.956 344.821 349.236C343.781 346.846 344.103 343.994 345.085 341.642C347.13 336.746 351.15 334.843 355.783 333.075Z"/>
	<path fill="#EBCFB6" d="M461.729 416.044C465.353 422.822 467.841 441.4 469.379 449.797L464.516 446.084L456.841 439.738C454.723 433.658 453.676 427.428 452.603 421.104L461.729 416.044Z"/>
	<path fill="#F0827E" d="M417.446 336.935C423.013 341.757 427.093 351.837 430.559 358.255C426.556 356.33 422.452 354.634 418.363 352.904C411.975 350.34 405.228 348.99 398.418 348.18C404.877 344.675 411.138 340.709 417.446 336.935Z"/>
	<path fill="#FDFBFA" d="M373.054 345.253C373.324 345.325 373.605 345.364 373.864 345.47C376.582 346.578 377.757 349.166 379.013 351.615C371.654 356.468 365.806 361.821 359.596 367.999C356.604 364.754 354.302 361.1 352.013 357.345C361.379 356.078 366.4 351.356 373.054 345.253Z"/>
	<path fill="#FDFBFA" d="M532.292 504.94L532.674 505.433C532.867 511.591 528.449 517.946 524.48 522.363C512.787 535.375 497.253 543.913 479.734 544.842L479.427 544.728C480.075 543.611 489.046 541.311 490.761 540.717C508.728 534.491 523.935 522.126 532.292 504.94Z"/>
	<path fill="#FDFBFA" d="M402.1 415.424C403.157 415.943 403.747 416.826 404.437 417.766C406.679 420.821 411.464 428.118 410.847 431.948L409.914 432.329L408.235 431.358C403.553 427.647 398.989 423.66 395.757 418.59L402.1 415.424Z"/>
	<path fill="#EBCFB6" d="M424.24 398.369C424.826 398.953 424.672 398.716 425.096 399.548C426.239 401.79 427.521 407.307 426.644 409.622L425.656 408.894L420.2 402.67L424.24 398.369Z"/>
	<path fill="#EBCFB6" d="M448.033 423.959L448.469 424.232C449.481 425.785 449.96 427.956 450.186 429.8C450.326 430.938 450.498 431.758 449.756 432.692L448.699 432.154L443.618 426.868L448.033 423.959Z"/>
	<path d="M913.862 788.147C916.654 787.834 919.706 787.787 922.507 787.988C929.7 788.505 937.648 791.286 942.336 796.987C945.838 801.246 945.948 805.197 945.393 810.372C949.566 811.036 954.179 811.567 957.968 813.536C963.078 816.193 966.356 821.263 967.971 826.657C970.651 835.607 971.872 848.575 967.125 857.02C963.164 864.066 955.459 868.936 947.786 871.006C936.337 874.093 924.636 872.046 914.469 866.273C899.774 875.789 885.565 886.007 870.995 895.705C857.445 904.724 843.433 913.265 830.233 922.778C829.455 932.237 831.485 942.619 826.319 951.189C821.784 958.712 813.819 961.755 805.754 963.814C803.693 964.031 801.613 964.258 799.541 964.306C791.36 964.494 782.189 962.834 776.219 956.784C770.985 951.481 770.327 945.228 770.26 938.186C763.798 936.415 754.634 933.503 751.058 927.377C747.058 920.523 746.888 903.418 749.103 895.87C750.819 890.021 754.851 885.684 760.121 882.771C773.558 875.344 788.035 878.331 802.017 882.263C815.259 875.415 827.466 865.053 839.729 856.552C854.875 846.053 870.867 836.59 885.203 824.974C885.078 824.327 884.96 823.686 884.86 823.034C883.659 815.185 883.445 807.907 888.526 801.237C894.494 793.403 904.44 789.607 913.862 788.147Z"/>
	<path fill="#FDFBFA" d="M913.151 792.626C915.142 792.366 917.235 792.298 919.242 792.285C925.224 792.249 932.916 793.568 937.182 798.029C941.471 802.512 940.751 807.952 940.533 813.664C943.91 816.647 949.228 815.763 953.416 816.901C957.292 817.954 960.719 820.321 962.696 823.873C964.681 827.44 964.911 831.839 963.681 835.691C962.018 840.895 958.29 844.657 953.458 847.05C940.311 853.564 925.917 850.393 912.753 845.927C905.951 849.891 899.508 854.542 892.982 858.945L861.114 880.387C847.377 889.575 831.837 897.741 819.629 908.896C821.546 911.925 823.597 915.034 824.648 918.489C825.945 922.755 825.563 927.029 823.275 930.886C819.389 937.436 812.29 940.197 805.354 942.153C797.392 943.415 787.196 943.416 780.348 938.56C775.751 935.301 774.491 931.289 773.528 926.043C774.777 925.285 776.115 924.704 776.749 923.318C775.73 918.082 760.04 917.881 754.811 910.82C752.356 907.504 751.242 903.828 752.058 899.759C753.14 894.357 756.707 890.046 761.312 887.151C774.958 878.572 787.996 883.664 802.173 886.836C808.871 883.796 814.872 879.033 820.866 874.815L847.167 856.302C861.376 846.404 876.228 837.602 889.989 827.055C888.423 819.052 887.107 810.777 892.064 803.576C896.964 796.455 905.165 794.181 913.151 792.626Z"/>
	<path fill="#FDFBFA" d="M965.677 841.854C966.367 842.548 966.221 842.202 966.412 843.093C967.345 847.427 965.179 852.269 962.76 855.736C958.169 862.313 950.654 866.36 942.852 867.692C932.703 869.424 923.104 867.024 914.771 861.097C896.993 873.339 878.884 885.121 860.97 897.164C850.601 904.134 840.481 911.643 829.9 918.271L824.982 909.632C836.87 900.508 850.071 892.962 862.488 884.564C879.205 873.258 896.003 860.287 913.926 850.978C921.213 853.421 928.503 855.501 936.261 855.35C948.571 855.109 957.299 850.571 965.677 841.854Z"/>
	<path fill="#FDFBFA" d="M824.764 936.386C825.469 937.043 825.514 937.792 825.538 938.734C825.671 944.052 823.872 948.973 820.028 952.715C814.379 958.216 805.477 960.416 797.768 960.341C789.821 960.263 782.86 957.669 777.252 951.904C775.096 948.134 774.684 943.993 774.188 939.771C780.233 943.668 786.432 946.294 793.653 946.931C805.861 948.007 815.559 944.155 824.764 936.386Z"/>
	<path fill="#FDFBFA" d="M752.466 915.231C758.573 918.306 763.88 921.962 770.333 924.567L769.949 933.295C765.69 933.363 760.447 931.239 757.388 928.306C753.488 924.568 752.63 920.375 752.466 915.231Z"/>
	<path d="M310.991 185.187C315.085 184.677 319.671 184.945 323.625 186.172C332.094 188.802 336.08 195.01 339.997 202.404C341.619 202.489 343.243 202.565 344.858 202.729C350.242 203.277 356.725 205.185 360.127 209.609C361.358 211.209 362.215 213.098 362.707 215.052C363.792 219.369 364.679 235.675 364.12 240.002C363.416 245.463 360.83 250.216 356.421 253.556C346.429 261.125 332.627 261.183 320.8 259.638Q302.291 276.34 284.084 293.37C274.054 302.59 263.475 311.656 254.88 322.276C256.334 326.403 257.456 330.34 257.671 334.738C257.995 341.406 255.905 347.872 251.277 352.755C244.872 359.51 236.098 361.446 227.182 361.647C222.569 361.441 218.217 360.789 214.018 358.744C208.449 356.033 205.055 351.812 203.052 346.061C194.478 344.179 185.938 343.861 179.509 336.856C173.988 330.84 173.691 321.126 173.996 313.386C174.293 305.857 176.482 299.344 182.236 294.182C192.23 285.215 206.455 285.464 219.018 286.045C227.575 279.455 235.376 271.74 243.439 264.555Q266.353 244.347 288.843 223.668C286.541 220.018 284.773 216.308 284.122 212.012C283.244 206.221 284.607 200.485 288.253 195.864C293.687 188.98 302.637 186.246 310.991 185.187Z"/>
	<path fill="#FDFBFA" d="M313.288 189.196C318.732 188.7 324.62 189.992 328.928 193.447C333.306 196.958 335.074 201.532 335.757 206.927C337.501 206.797 339.254 206.657 341.003 206.632C346.25 206.558 352.387 207.873 356.194 211.698C358.376 213.89 359.522 216.737 359.427 219.831C359.287 224.371 356.705 228.55 353.463 231.577C343.382 240.987 329.719 240.971 316.836 240.391C305.726 250.203 295.009 260.437 284.011 270.369C270.721 282.37 257.365 293.965 244.993 306.955C248.274 311.058 251.295 315.406 251.443 320.873C251.565 325.387 249.633 329.504 246.52 332.708C240.7 338.698 232.662 340.426 224.653 340.54C221.308 340.481 216.498 339.342 213.588 337.671C207.311 334.066 209.445 329.763 207.806 324.184C203.567 322.097 197.977 324.683 193.356 324.245C188.523 323.786 184.633 321.395 181.657 317.585C179.513 314.84 178.423 311.517 178.947 308.04C179.734 302.816 183.729 298.317 187.923 295.392C197.238 288.894 209.831 288.913 220.6 290.644Q242.677 269.879 265.517 249.955C275.052 241.525 284.829 233.288 293.958 224.42C291.511 219.991 289.075 215.647 288.453 210.525C287.882 205.831 289.034 201.18 292.12 197.54C297.372 191.346 305.664 189.933 313.288 189.196Z"/>
	<path fill="#EBCFB6" d="M315.599 246.828L316.033 246.974C317.951 248.973 317.555 253.415 317.631 256.034C308.834 266.143 298.192 275.334 288.439 284.54C277.741 294.638 266.916 305.644 255.318 314.672L254.577 314.465L250.217 307.423C271.159 286.455 293.738 266.846 315.599 246.828Z"/>
	<path fill="#EBCFB6" d="M252.989 331.005L253.378 331.552C254.083 337.981 253.263 343.292 249.163 348.534C244.888 354.001 238.3 357.041 231.483 357.696C222.878 358.522 216.091 355.955 209.518 350.522C207.177 346.9 207.494 342.807 207.506 338.681C214.819 342.415 221.626 345.197 229.993 344.552C240.208 343.765 246.624 338.418 252.989 331.005Z"/>
	<path fill="#EBCFB6" d="M359.55 231.392L360.344 232.259C360.663 234.472 360.536 236.79 360.202 239.001C359.452 243.963 356.755 248.055 352.663 250.923C344.046 256.96 331.782 257.454 321.752 255.908L320.467 245.181Q321.872 245.239 323.279 245.231C337.879 245.228 349.144 241.817 359.55 231.392Z"/>
	<path fill="#EBCFB6" d="M178.515 321.224C188.146 327.172 192.445 328.758 203.938 329.546C203.517 333.48 203.53 337.438 203.479 341.39C202.977 341.483 202.468 341.51 201.959 341.537C195.624 341.869 188.113 339.698 183.454 335.311C179.13 331.238 178.774 326.782 178.515 321.224Z"/>
	<path d="M119.163 386.648C120.324 386.99 120.919 387.278 121.627 388.303C123.04 390.348 123.96 393.072 124.962 395.354C127.308 400.697 129.91 405.919 133.623 410.474C141.104 419.653 151.026 421.173 160.137 427.04C159.987 429.497 155.573 431.21 153.626 432.054C134.506 440.335 128.575 450.105 120.702 468.919C119.333 468.532 118.556 468.224 117.726 467.058C116.116 464.797 114.973 461.766 113.723 459.255C109.128 450.025 104.339 442.798 95.2904 437.509C90.3271 434.608 83.8319 432.847 79.5875 428.97C79.4145 427.921 79.5737 427.867 80.4779 427.231C82.3039 425.946 85.6747 425.212 87.8054 424.347Q90.572 423.197 93.1863 421.733Q95.8006 420.269 98.2273 418.512C105.071 413.572 111.122 406.39 114.153 398.461C115.706 394.4 116.882 390.387 119.163 386.648Z"/>
	<path fill="#F0827E" d="M119.759 396.866C122.425 399.913 123.962 403.84 126.102 407.263C132.236 417.074 141.438 422.733 151.379 428.063C135.82 436.084 128.139 444.247 119.993 459.584C117.997 458.901 111.786 446.982 109.466 444.327C103.583 437.594 96.2677 433.24 88.5236 429.019C103.118 421.201 112.598 411.851 119.759 396.866Z"/>
	<path d="M73.6749 573.164C73.9269 573.262 74.1832 573.349 74.4308 573.458C76.1059 574.19 76.3831 574.717 76.0215 576.454C74.6429 583.078 67.6756 594.957 64.7841 601.756C60.5721 611.661 57.4892 622.227 54.6317 632.593Q53.9657 635.087 53.3464 637.592Q52.7271 640.098 52.1547 642.614Q51.5823 645.131 51.0569 647.658Q50.5315 650.185 50.0533 652.721Q49.5752 655.258 49.1445 657.802Q48.7137 660.347 48.3306 662.9Q47.9474 665.452 47.6119 668.011Q47.2765 670.57 46.9888 673.135Q46.7011 675.7 46.4614 678.27Q46.2216 680.839 46.0299 683.413Q45.8381 685.987 45.6944 688.564Q45.5507 691.141 45.4551 693.72Q45.3595 696.299 45.3121 698.88Q45.2646 701.46 45.2653 704.041Q45.266 706.622 45.3149 709.203Q45.3638 711.783 45.4608 714.363Q45.5578 716.942 45.703 719.519Q45.8481 722.095 46.0413 724.669Q46.2345 727.243 46.4756 729.813Q46.7168 732.382 47.0059 734.947Q47.295 737.512 47.6319 740.071Q47.9688 742.63 48.3533 745.182Q48.7379 747.734 49.1701 750.278Q49.6022 752.823 50.0817 755.359Q50.5613 757.895 51.0881 760.422Q51.6148 762.948 52.1887 765.465Q52.7625 767.981 53.3832 770.486Q54.0039 772.991 54.6712 775.485Q55.3386 777.978 56.0523 780.458Q56.766 782.938 57.5259 785.405Q58.2858 787.871 59.0916 790.323Q59.8974 792.775 60.7488 795.212Q61.703 797.886 62.7184 800.537Q63.7337 803.189 64.8096 805.816Q65.8855 808.443 67.0214 811.045Q68.1573 813.647 69.3526 816.223Q70.5478 818.798 71.8018 821.345Q73.0559 823.892 74.368 826.41Q75.6802 828.928 77.0497 831.415Q78.4192 833.902 79.8455 836.357Q81.2717 838.812 82.7539 841.233Q84.236 843.655 85.7734 846.042Q87.3107 848.428 88.9024 850.779Q90.4941 853.13 92.1393 855.444Q93.7844 857.758 95.4823 860.034Q97.1801 862.309 98.9297 864.545Q100.679 866.781 102.48 868.976Q104.28 871.172 106.13 873.325Q107.981 875.478 109.88 877.589Q111.779 879.699 113.726 881.765Q115.673 883.832 117.667 885.853Q119.661 887.874 121.701 889.848Q123.741 891.823 125.826 893.75Q127.91 895.678 130.039 897.557Q132.167 899.436 134.338 901.266Q136.509 903.096 138.721 904.875Q140.933 906.655 143.186 908.383Q145.438 910.111 147.73 911.788Q150.021 913.464 152.35 915.087Q154.68 916.71 157.046 918.279Q159.412 919.849 161.813 921.363Q164.215 922.878 166.65 924.337Q169.086 925.796 171.554 927.199Q174.022 928.602 176.522 929.948Q189.407 936.879 203.013 942.257C207.617 944.075 217.22 946.679 220.959 949.147C222.143 949.929 222.134 950.609 222.427 951.889C221.829 952.005 221.651 952.055 221.096 952.114C215.915 952.667 208.869 949.422 204.137 947.554Q199.2 945.617 194.348 943.478Q189.495 941.34 184.734 939.004Q179.973 936.668 175.311 934.139Q170.65 931.61 166.097 928.892Q161.543 926.174 157.105 923.271Q152.667 920.368 148.352 917.285Q144.036 914.203 139.851 910.946Q135.666 907.689 131.618 904.263C78.9302 860.305 48.6524 797.826 42.6153 729.843C38.4989 683.488 44.7172 637.925 62.947 594.983C65.6938 588.513 69.2269 578.475 73.6749 573.164Z"/>
	<path d="M194.272 121.674C200.23 124.361 200.623 133.001 204.885 137.594C210.407 143.545 218.198 146.167 224.544 150.987C224.703 151.107 224.859 151.232 225.016 151.355C218.538 156.765 209.876 158.435 204.604 165.471C201.191 170.026 199.902 176.009 196.513 180.505C196.324 180.757 196.126 181.002 195.933 181.251C190.361 176.151 188.777 167.804 183.201 162.553C178.369 158.002 169.209 155.848 166.372 153.012C166.002 152.642 165.937 152.378 165.762 151.938L165.946 151.336C166.694 148.888 177.197 145.101 179.806 143.167C186.891 137.918 190.132 129.19 194.272 121.674Z"/>
	<path fill="#FDFBFA" d="M194.731 130.235C196.414 131.405 197.867 134.007 199.102 135.68C204.473 142.96 208.998 147.153 217.033 151.37C206.661 156.32 201.285 161.959 196.153 172.207C194.201 170.773 192.342 167.276 190.848 165.274C186.18 159.022 180.598 155.371 173.891 151.564C183.936 146.294 189.053 139.828 194.731 130.235Z"/>
	<path d="M969.108 302.671C974.297 303.46 976.305 315.255 981.123 320.115C986.126 325.162 993.724 326.532 998.525 331.264C999.275 332.004 999.085 331.626 999.118 332.653C996.944 334.373 994.21 334.937 991.661 335.925C980.527 340.242 975.239 351.62 970.827 361.794C970.285 361.476 970.313 361.522 969.757 361.022C965.422 357.114 963.617 348.349 958.919 343.786C953.764 338.779 945.595 337.282 940.648 332.174C940.799 331.794 940.821 331.333 941.1 331.034C941.839 330.242 953.145 325.443 956.479 322.651C962.824 317.337 965.831 310.042 969.108 302.671ZM949.254 331.603C958.241 337.413 963.641 342.786 969.55 351.679C972.316 350.284 975.107 344.216 977.486 341.711C981.056 337.951 985.279 334.988 989.424 331.913C983.523 327.782 979.109 324.316 974.92 318.405C973.483 316.378 972.101 313.562 970.321 311.874C965.676 321.048 958.588 327.332 949.254 331.603Z"/>
	<path d="M892.839 690.278C897.702 693.685 899.131 701.184 903.86 704.744C907.498 707.482 912.834 707.935 916.026 711.449C916.089 711.796 916.287 712.145 916.217 712.491C916.016 713.486 907.944 716.731 906.359 717.694C900.271 721.388 897.373 726.676 894.103 732.725C893.645 733.594 893.153 734.447 892.676 735.305C890.992 733.823 890.142 731.184 889.026 729.232C884.836 721.907 878.841 717.623 871.733 713.342C880.613 706.597 886.603 699.439 892.839 690.278Z"/>
	<path fill="#FDFBFA" d="M892.81 698.764C894.646 700.065 896.312 702.611 897.891 704.282C900.591 707.14 903.518 709.411 906.74 711.649C901.256 715.772 897.217 719.938 893.425 725.669L893.254 725.687C891.258 725.016 882.366 715.444 879.924 713.277C884.727 708.767 888.852 704.03 892.81 698.764Z"/>
	<path d="M282.097 956.211Q282.292 956.165 282.49 956.128Q282.687 956.091 282.886 956.064Q283.085 956.037 283.285 956.02Q283.485 956.003 283.686 955.995Q283.887 955.987 284.087 955.99Q284.288 955.992 284.489 956.004Q284.689 956.015 284.889 956.037Q285.088 956.058 285.287 956.09Q285.485 956.121 285.682 956.162Q285.878 956.202 286.073 956.253Q286.267 956.303 286.459 956.363Q286.651 956.422 286.839 956.491Q287.028 956.56 287.213 956.638Q287.398 956.716 287.579 956.803Q287.76 956.89 287.937 956.985Q288.114 957.081 288.285 957.184Q288.457 957.288 288.624 957.401Q288.79 957.513 288.951 957.633Q289.112 957.753 289.267 957.88Q289.422 958.008 289.571 958.143Q289.719 958.278 289.861 958.421Q290.003 958.563 290.138 958.712Q290.272 958.861 290.4 959.016Q290.527 959.171 290.647 959.332Q290.766 959.493 290.878 959.66Q290.99 959.827 291.094 959.999Q291.197 960.171 291.292 960.348Q291.387 960.525 291.474 960.706Q291.56 960.888 291.637 961.073Q291.715 961.258 291.783 961.447Q291.852 961.636 291.911 961.828Q291.97 962.019 292.02 962.214Q292.07 962.408 292.11 962.605Q292.15 962.802 292.181 963Q292.212 963.199 292.233 963.398Q292.254 963.598 292.265 963.799Q292.277 963.999 292.278 964.2Q292.28 964.401 292.272 964.601Q292.264 964.802 292.246 965.002Q292.228 965.202 292.201 965.401Q292.173 965.6 292.136 965.797Q292.099 965.994 292.052 966.19Q292.006 966.385 291.95 966.578Q291.894 966.771 291.828 966.96Q291.763 967.15 291.689 967.337Q291.614 967.523 291.531 967.706Q291.447 967.889 291.355 968.067Q291.263 968.245 291.162 968.419Q291.062 968.593 290.953 968.761Q290.844 968.93 290.727 969.093Q290.61 969.256 290.485 969.414Q290.36 969.571 290.228 969.722Q290.095 969.873 289.956 970.017Q289.816 970.162 289.67 970.299Q289.524 970.437 289.371 970.567Q289.218 970.697 289.059 970.82Q288.9 970.943 288.736 971.058Q288.571 971.172 288.401 971.279Q288.231 971.386 288.056 971.484Q287.881 971.583 287.701 971.672Q287.521 971.762 287.338 971.843Q287.154 971.924 286.966 971.996Q286.779 972.068 286.588 972.131Q286.398 972.193 286.204 972.247Q285.94 972.32 285.671 972.375Q285.402 972.431 285.131 972.468Q284.859 972.506 284.586 972.525Q284.312 972.545 284.038 972.546Q283.764 972.547 283.49 972.53Q283.216 972.513 282.944 972.478Q282.672 972.443 282.403 972.391Q282.134 972.338 281.869 972.267Q281.604 972.196 281.344 972.108Q281.084 972.02 280.831 971.915Q280.578 971.81 280.332 971.689Q280.086 971.567 279.849 971.43Q279.611 971.292 279.384 971.139Q279.156 970.986 278.939 970.819Q278.722 970.651 278.516 970.469Q278.311 970.288 278.118 970.093Q277.925 969.898 277.745 969.691Q277.566 969.484 277.4 969.265Q277.235 969.046 277.084 968.817Q276.933 968.588 276.798 968.35Q276.663 968.111 276.543 967.864Q276.424 967.617 276.322 967.363Q276.219 967.108 276.134 966.848Q276.048 966.587 275.98 966.321Q275.912 966.056 275.862 965.786Q275.812 965.516 275.779 965.244Q275.747 964.972 275.733 964.698Q275.718 964.424 275.722 964.149Q275.726 963.875 275.748 963.602Q275.77 963.328 275.81 963.057Q275.85 962.786 275.908 962.518Q275.966 962.25 276.042 961.986Q276.118 961.722 276.21 961.464Q276.303 961.206 276.413 960.955Q276.523 960.704 276.649 960.46Q276.775 960.217 276.917 959.982Q277.059 959.747 277.216 959.523Q277.373 959.298 277.545 959.084Q277.717 958.871 277.902 958.669Q278.088 958.467 278.286 958.277Q278.485 958.088 278.695 957.912Q278.906 957.737 279.127 957.575Q279.349 957.414 279.581 957.267Q279.813 957.121 280.054 956.99Q280.295 956.859 280.544 956.745Q280.793 956.631 281.05 956.533Q281.306 956.435 281.568 956.355Q281.83 956.274 282.097 956.211Z"/>
	<path fill="#3F4041" d="M280.342 959.915C281.803 959.935 283.317 959.907 284.735 960.299C285.91 960.624 287.162 961.349 287.683 962.487C288.673 964.646 287.763 966.409 286.931 968.441C285.778 968.522 284.53 968.664 283.385 968.465C281.999 968.223 280.667 967.51 280.017 966.215C278.983 964.158 279.732 961.969 280.342 959.915Z"/>
</svg>
