<?xml version="1.0" encoding="UTF-8" standalone="no"?>
<!-- icon666.com - MILLIONS OF FREE VECTOR ICONS -->

<svg
   id="Layer_1"
   enable-background="new 0 0 512 512"
   viewBox="0 0 512 512"
   version="1.1"
   sodipodi:docname="lottery_2go3l0ttks3y.svg"
   inkscape:version="1.4 (e7c3feb1, 2024-10-09)"
   xmlns:inkscape="http://www.inkscape.org/namespaces/inkscape"
   xmlns:sodipodi="http://sodipodi.sourceforge.net/DTD/sodipodi-0.dtd"
   xmlns="http://www.w3.org/2000/svg"
   xmlns:svg="http://www.w3.org/2000/svg">
  <defs
     id="defs10" />
  <sodipodi:namedview
     id="namedview10"
     pagecolor="#ffffff"
     bordercolor="#000000"
     borderopacity="0.25"
     inkscape:showpageshadow="2"
     inkscape:pageopacity="0.0"
     inkscape:pagecheckerboard="0"
     inkscape:deskcolor="#d1d1d1"
     inkscape:zoom="0.18399698"
     inkscape:cx="464.68154"
     inkscape:cy="407.61539"
     inkscape:window-width="1104"
     inkscape:window-height="521"
     inkscape:window-x="50"
     inkscape:window-y="37"
     inkscape:window-maximized="0"
     inkscape:current-layer="Layer_1" />
  <path
     d="m509.07 101.93c-1.86-1.86-4.44-2.93-7.07-2.93h-492c-5.523 0-10 4.477-10 10v294c0 5.523 4.477 10 10 10h338c5.51 0 10-4.49 10-10s-4.49-10-10-10h-148v-274h292v274h-54c-5.51 0-10 4.49-10 10s4.49 10 10 10h64c2.63 0 5.21-1.07 7.07-2.93s2.93-4.44 2.93-7.07v-294c0-2.63-1.07-5.21-2.93-7.07zm-489.07 17.07h160v274h-160z"
     id="path1" />
  <circle
     cx="393"
     cy="403"
     r="10"
     id="circle1" />
  <path
     d="m390.928 360.053 72-53c2.239-1.648 3.691-4.155 4.007-6.917.315-2.763-.533-5.532-2.343-7.644l-19.122-22.309 25.905-39.721c1.722-2.641 2.098-5.938 1.015-8.898s-3.499-5.237-6.518-6.143l-8.236-2.471 14.16-26.195c1.885-3.487 1.533-7.757-.897-10.887-2.43-3.131-6.482-4.532-10.325-3.57l-23.322 5.831 7.379-26.441c.977-3.501-.022-7.256-2.61-9.808-2.588-2.551-6.354-3.5-9.844-2.474l-107.971 31.756-2.315-15.628c-.544-3.671-3.076-6.739-6.577-7.969-3.501-1.232-7.396-.421-10.116 2.104l-83 77c-1.969 1.827-3.12 4.368-3.195 7.053s.934 5.287 2.798 7.22l22.459 23.291-23.504 56.953c-1.273 3.085-.923 6.602.933 9.376s4.974 4.438 8.311 4.438h30v12c0 3.658 1.998 7.024 5.208 8.777 3.211 1.752 7.123 1.613 10.2-.366l54.146-34.809-.551 23.159c-.085 3.559 1.729 6.894 4.761 8.758 3.032 1.863 6.827 1.976 9.964.292l28.703-15.401 2.706 16.234c.571 3.429 2.882 6.314 6.103 7.622 1.213.492 2.49.734 3.76.734 2.1 0 4.183-.662 5.928-1.947zm-147.653-125.656 6.259-5.806c1.763 1.559 4.074 2.513 6.613 2.513h4.174v20.971zm94.871 35.886c0 5.21-4.117 9.448-9.177 9.448s-9.177-4.238-9.177-9.448v-31.103c0-5.21 4.117-9.449 9.177-9.449s9.177 4.239 9.177 9.449zm41.854 41.717c-1.627 0-3.253.397-4.728 1.188l-25.866 13.879.591-24.83c.077-3.208-1.392-6.22-3.885-8.147 7.287-5.359 12.035-14.033 12.035-23.808v-31.102c0-16.238-13.089-29.449-29.177-29.449s-29.177 13.21-29.177 29.449v31.103c0 15.015 11.195 27.433 25.601 29.219l-45.394 29.181v-3.683c0-5.523-4.477-10-10-10h-25.055l15.375-37.256v10.615c0 5.523 4.477 10 10 10s10-4.477 10-10v-67.255c0-5.523-4.477-10-10-10h-1.937l36.506-33.867 1.219 8.228c.424 2.863 2.067 5.401 4.506 6.96 2.437 1.558 5.431 1.983 8.208 1.168l101.699-29.912-7.152 25.63c-.958 3.43-.018 7.11 2.465 9.663 2.483 2.552 6.136 3.59 9.592 2.727l17.989-4.498-9.211 17.041c-1.43 2.646-1.594 5.795-.445 8.575 1.148 2.78 3.487 4.895 6.368 5.759l7.194 2.158-10.82 16.59v-8.146c0-16.238-13.089-29.449-29.177-29.449s-29.177 13.21-29.177 29.449v31.103c0 16.238 13.089 29.448 29.177 29.448 10.565 0 19.835-5.697 24.956-14.206l10.119 11.806-50.212 36.961-2.323-13.937c-.53-3.18-2.561-5.91-5.455-7.332-1.392-.682-2.901-1.023-4.409-1.023zm36.5-72.82v31.103c0 5.21-4.117 9.448-9.177 9.448s-9.177-4.238-9.177-9.448v-31.103c0-5.21 4.117-9.449 9.177-9.449s9.177 4.239 9.177 9.449z"
     id="path2" />
  <circle
     cx="100"
     cy="349"
     r="10"
     id="circle2" />
  <circle
     cx="55"
     cy="349"
     r="10"
     id="circle3" />
  <circle
     cx="145"
     cy="349"
     r="10"
     id="circle4" />
  <path
     d="m77 299h-27c-5.51 0-10 4.49-10 10s4.49 10 10 10h27c5.51 0 10-4.49 10-10s-4.49-10-10-10z"
     id="path4" />
  <path
     d="m150 299h-28c-5.51 0-10 4.49-10 10s4.49 10 10 10h28c5.51 0 10-4.49 10-10s-4.49-10-10-10z"
     id="path5" />
  <path
     d="m150 259h-28c-5.51 0-10 4.49-10 10s4.49 10 10 10h28c5.51 0 10-4.49 10-10s-4.49-10-10-10z"
     id="path6" />
  <path
     d="m77 259h-27c-5.51 0-10 4.49-10 10s4.49 10 10 10h27c5.51 0 10-4.49 10-10s-4.49-10-10-10z"
     id="path7" />
  <path
     d="m150 219h-100c-5.523 0-10 4.477-10 10s4.477 10 10 10h100c5.523 0 10-4.477 10-10s-4.477-10-10-10z"
     id="path8" />
  <circle
     cx="150"
     cy="189"
     r="10"
     id="circle8" />
  <path
     d="m50 199h55c5.51 0 10-4.49 10-10s-4.49-10-10-10h-55c-5.51 0-10 4.49-10 10s4.49 10 10 10z"
     id="path9" />
  <path
     d="m70 159h60c5.523 0 10-4.477 10-10s-4.477-10-10-10h-60c-5.523 0-10 4.477-10 10s4.477 10 10 10z"
     id="path10" />
  <path
     style="fill:#ff5555;stroke-width:2.71744;paint-order:markers fill stroke"
     d="m 24.456923,255.43898 v -135.8718 h 76.088207 76.08821 v 135.8718 135.87179 H 100.54513 24.456923 Z m 43.478975,94.35821 c 0,-10.23457 -15.456726,-15.85697 -22.961441,-8.35226 -4.278338,4.27834 -4.066265,8.16726 0.762679,13.98578 7.763841,9.35486 22.198762,5.69162 22.198762,-5.63352 z m 43.478972,-2.54686 c 0,-6.66503 -3.82802,-10.28828 -10.86974,-10.28828 -10.362753,0 -15.419422,15.37819 -7.620963,23.17665 6.083301,6.0833 18.490703,-2.56489 18.490703,-12.88837 z m 43.47898,0.26072 c 0,-6.92575 -3.73342,-10.549 -10.86975,-10.549 -12.17342,0 -15.52991,19.16203 -4.07615,23.27061 9.90351,3.55249 14.9459,-0.73948 14.9459,-12.72161 z M 88.668287,308.42898 c 1.502313,-7.91998 -2.300173,-9.51103 -22.730567,-9.51103 -13.494075,0 -26.046203,2.44569 -27.893617,5.43487 -6.594762,10.67055 4.068932,16.85502 26.267573,15.23402 16.350648,-1.19396 23.048628,-4.26234 24.356611,-11.15786 z m 71.660433,1.35872 c 0,-9.25942 -3.62325,-10.86975 -24.45692,-10.86975 -20.83368,0 -24.45693,1.61033 -24.45693,10.86975 0,9.25941 3.62325,10.86974 24.45693,10.86974 20.83367,0 24.45692,-1.61033 24.45692,-10.86974 z M 86.95795,269.02616 c 0,-8.71414 -4.201521,-11.21379 -21.186296,-12.60456 -21.912839,-1.79432 -31.83409,5.37817 -26.53624,19.18414 1.985376,5.17381 9.987088,7.04765 25.312806,5.92773 18.240623,-1.33292 22.40973,-3.65978 22.40973,-12.50731 z m 70.65333,0 c 0,-8.37764 -4.20811,-11.27203 -18.35442,-12.62435 -20.82248,-1.99055 -30.88273,5.01342 -25.88988,18.02458 2.48325,6.47125 8.88234,8.39446 23.81985,7.15891 16.23808,-1.34313 20.42445,-3.91736 20.42445,-12.55914 z m 2.71744,-40.76154 c 0,-10.20742 -3.62325,-10.86975 -59.46284,-10.86975 -56.616828,0 -70.647949,3.64161 -62.821777,16.30462 1.908127,3.08741 29.04242,5.43487 62.821777,5.43487 55.83959,0 59.46284,-0.66232 59.46284,-10.86974 z m -43.47898,-37.46263 c 0,-12.90433 -10.20029,-16.88609 -43.258004,-16.88609 -26.222506,0 -42.808623,9.99096 -35.694771,21.50141 1.928341,3.12012 20.481582,5.67295 41.229427,5.67295 33.389418,0 37.723348,-1.18199 37.723348,-10.28827 z m 43.47898,0.32434 c 0,-12.82182 -4.56818,-17.20187 -14.11853,-13.53706 -12.0226,4.61351 -9.41159,23.50099 3.24879,23.50099 6.9171,0 10.86974,-3.62325 10.86974,-9.96393 z m -19.02205,-41.66735 c 0,-9.66261 -4.16516,-11.05029 -37.50535,-12.49548 -38.968964,-1.68917 -50.535255,2.90574 -44.817982,17.80472 2.746778,7.15798 10.57088,8.46539 42.841912,7.1589 35.32537,-1.43014 39.48142,-2.74261 39.48142,-12.46814 z"
     id="path11" />
  <path
     style="fill:#ff5555;stroke-width:2.71744;paint-order:markers fill stroke"
     d="m 200.73517,255.43898 c 0,-76.22408 0.76438,-107.40666 1.69864,-69.29462 0.93425,38.11204 0.93425,100.47719 0,138.58923 -0.93426,38.11204 -1.69864,6.92946 -1.69864,-69.29461 z"
     id="path12" />
</svg>
