<?xml version="1.0" encoding="utf-8" ?>
<svg xmlns="http://www.w3.org/2000/svg" xmlns:xlink="http://www.w3.org/1999/xlink" width="1024" height="1024">
	<path fill="#25384E" d="M474.936 132.702C479.294 132.806 483.363 133.57 487.427 135.17C495.866 138.494 503.993 143.417 512.005 147.677L553.456 169.724L731.355 264.625L781.694 291.44C791.364 296.488 801.226 302.01 811.414 305.893L812.15 305.239C812.477 300.871 801.894 297.27 798.892 294.578Q795.941 291.888 793.374 288.829Q790.807 285.77 788.669 282.398Q788.004 281.323 787.393 280.216Q786.782 279.109 786.227 277.973Q785.671 276.837 785.173 275.675Q784.674 274.513 784.233 273.328Q783.792 272.143 783.411 270.938Q783.029 269.732 782.708 268.51Q782.386 267.287 782.125 266.05Q781.864 264.812 781.665 263.564Q781.465 262.315 781.328 261.058Q781.19 259.802 781.115 258.539Q781.04 257.277 781.027 256.013Q781.014 254.749 781.064 253.485Q781.114 252.222 781.226 250.963Q781.338 249.703 781.512 248.451Q781.686 247.198 781.921 245.956Q782.157 244.714 782.454 243.485Q782.743 242.26 783.093 241.051Q783.442 239.842 783.852 238.652Q784.261 237.462 784.729 236.294Q785.198 235.126 785.724 233.982Q786.25 232.839 786.832 231.723Q787.414 230.607 788.051 229.522Q788.688 228.437 789.378 227.384Q790.069 226.332 790.811 225.316Q791.552 224.299 792.344 223.321Q793.136 222.342 793.975 221.405Q794.814 220.467 795.7 219.572Q796.585 218.677 797.513 217.828Q798.442 216.978 799.411 216.176Q800.381 215.374 801.39 214.621Q802.398 213.868 803.443 213.167Q804.488 212.465 805.566 211.816C816.543 205.103 829.794 203.55 842.216 206.562Q843.416 206.855 844.601 207.207Q845.785 207.559 846.951 207.969Q848.117 208.379 849.261 208.846Q850.405 209.312 851.525 209.835Q852.644 210.358 853.737 210.935Q854.829 211.513 855.892 212.143Q856.954 212.774 857.985 213.456Q859.015 214.138 860.01 214.87Q861.006 215.602 861.964 216.383Q862.922 217.163 863.84 217.99Q864.759 218.817 865.635 219.688Q866.512 220.559 867.344 221.472Q868.177 222.385 868.963 223.338Q869.749 224.291 870.488 225.282Q871.226 226.272 871.915 227.298Q872.604 228.324 873.241 229.383C880.279 241.092 881.988 255.795 878.58 268.965C874.963 282.941 865.875 292.522 853.741 299.763C853.44 309.777 853.636 319.831 853.69 329.85C854.022 329.978 854.356 330.101 854.682 330.242C859.888 332.488 865.042 335.344 870.088 337.955C882.77 344.515 902.91 353.695 908.146 368.064C909.371 371.424 909.79 374.783 909.699 378.329C909.126 400.795 906.767 423.504 905.275 445.954L895.581 589.153L885.158 741.009C883.347 767.578 882.637 794.332 879.73 820.807C879.168 825.921 878.145 830.964 875.837 835.602Q875.352 836.563 874.793 837.483Q874.233 838.403 873.603 839.276Q872.972 840.149 872.274 840.969Q871.577 841.789 870.816 842.551Q870.055 843.313 869.236 844.012Q868.418 844.711 867.546 845.343Q866.675 845.976 865.756 846.537Q864.837 847.098 863.876 847.584C853.273 853.028 841.386 856.248 830.38 860.876Q777.472 882.921 724.322 904.374L650.587 935.163C641.982 938.729 633.397 943.613 624.52 946.332C617.246 948.56 607.349 941.408 601.162 938.031Q589.904 931.917 578.774 925.575C566.802 931.513 550.495 936.425 537.657 941.121Q508.609 951.68 479.719 962.667C468.454 966.889 457.026 970.881 445.919 975.497C424.715 964.947 402.972 950.968 382.163 939.244L221.105 847.864L116.224 788.694Q92.8893 776.015 69.9235 762.678C62.3789 758.27 54.0665 754.016 47.3332 748.446C46.2419 735.866 49.7879 721.871 51.5346 709.418C52.9805 699.11 53.9476 688.727 55.6234 678.453C65.8744 670.345 77.1466 663.206 87.7704 655.567Q124.956 629.07 161.57 601.789C162.269 591.608 161.968 581.267 161.767 571.064C161.575 561.329 160.564 551.111 163.109 541.616C166.404 529.323 172.585 517.586 177.485 505.867L202.65 444.117L262.465 297.576L288.178 234.444C291.658 225.891 294.772 217.15 298.437 208.678C300.3 204.37 302.541 200.011 305.529 196.365C308.418 192.839 312.231 189.663 316.347 187.682C322.452 184.745 329.621 182.845 336.018 180.556L381.433 164.543C396.671 159.174 412.043 154.067 427.188 148.451C438.723 144.174 450.057 139.182 461.804 135.507C466.187 134.137 470.36 133.124 474.936 132.702ZM169.219 547.42C183.207 554.505 196.724 562.747 210.334 570.533L275.637 607.653L475.716 720.922L536.002 754.902C558.549 767.746 581.069 780.867 604.035 792.95C608.742 795.611 613.44 798.242 617.953 801.227L707.913 569.734L737.198 492.491C742.852 477.766 750.444 462.012 754.089 446.772C755.946 439.007 755.607 431.548 752.453 424.173C749.16 416.477 744.485 411.352 737.497 406.802C727.908 400.558 717.376 395.428 707.318 389.971L653.819 361.136L492.652 275.222L388.9 219.895L356.884 202.748C349.785 198.967 342.275 194.634 334.786 191.719C332.748 190.926 330.842 190.145 328.618 190.512C317.486 194.33 312.278 196.931 306.908 207.829C303.12 215.517 300.023 223.66 296.747 231.579L278.758 275.623L218.255 424.664L187.644 499.885C181.215 515.439 173.064 531.009 169.219 547.42ZM853.682 336.786Q853.216 355.995 853.223 375.21C858.431 372.868 869.324 366.773 874.619 366.832L875.288 367.354C875.177 368.574 874.649 369.341 873.748 370.137C868.8 374.506 859.429 377.468 853.081 379.113C853.409 395.423 853 411.804 852.987 428.123L852.877 514.251Q852.151 558.038 852.371 601.829C860.316 608.097 864.175 616.388 865.359 626.34C867.379 643.329 860.242 660.298 849.765 673.364C842.02 683.023 830.483 691.904 817.794 693.168C806.611 694.282 789.103 684.67 780.608 677.57C773.779 671.862 770.822 664.281 770.132 655.58C768.591 636.138 776.829 616.957 789.372 602.436C796.212 594.517 804.73 588.017 814.871 585.074Q813.982 522.049 813.804 459.018L813.238 419.089C813.094 410.474 813.168 401.784 812.529 393.19C805.425 396.039 786.356 404.931 779.6 404.836L778.951 404.217C779.22 402.661 779.946 401.719 781.229 400.849C786.987 396.945 805.493 391.054 812.709 388.803C812.179 364.012 812.529 339.198 811.972 314.414C801.39 310.24 791.163 304.202 781.068 298.936Q753.027 284.346 725.195 269.359L564.392 183.817C538.205 169.998 512.32 154.863 485.497 142.37C482.504 140.975 479.559 139.409 476.181 139.543C456.957 143.553 438.481 151.943 419.959 158.452Q393.282 167.805 366.716 177.467C357.871 180.625 348.716 183.363 340.029 186.911Q479.844 259.014 618.024 334.202L703.88 379.703C717.367 386.969 732.374 393.772 744.742 402.787C752.221 408.239 758.009 416.483 760.781 425.304C763.373 433.551 763.182 441.13 761.006 449.443C757.642 462.291 751.674 474.688 746.897 487.087L720.01 557.695Q673.861 680.508 625.307 802.391C647.16 792.341 669.454 783.328 691.411 773.527Q708.433 765.981 725.57 758.702C731.981 755.921 738.537 752.508 745.17 750.364C746.705 749.868 747.771 749.714 749.345 750.197L749.925 750.948C749.202 752.988 746.282 753.993 744.407 754.882C723.486 764.805 701.873 773.205 680.663 782.482C670.768 786.81 660.728 791.009 650.912 795.471C641.988 799.528 633.275 803.874 624.12 807.404C625.312 851.113 624.552 894.859 624.973 938.575C657.921 923.321 691.893 909.842 725.472 896.034Q787.859 870.183 850.623 845.26C858.247 842.015 867.009 838.678 870.503 830.438C872.046 826.799 872.65 822.298 873.062 818.387C873.929 810.15 874.023 801.832 874.46 793.566L876.728 757.279L885.022 637.064L894.981 494.38Q898.217 453.24 900.644 412.045C901.347 400.725 902.458 389.324 902.831 377.998Q902.864 377.046 902.788 376.096Q902.712 375.146 902.527 374.212Q902.343 373.277 902.052 372.369Q901.762 371.462 901.369 370.594C895.179 356.979 866.674 343.828 853.682 336.786ZM64.9703 681.251C88.0172 692.767 109.89 706.696 132.119 719.696L232.677 777.709L384.87 864.646C405.795 876.667 427.169 888.159 447.733 900.772C449.347 900.554 450.61 899.592 451.884 898.641C461.929 891.145 471.419 882.715 481.184 874.84Q513.916 848.313 547.236 822.529L284.745 674.151L206.55 629.542L183.081 616.463C177.704 613.431 172.264 609.924 166.62 607.424L94.5893 659.473C85.0634 666.411 73.5008 673.274 64.9703 681.251ZM168.943 601.053C180.858 606.82 192.29 613.839 203.807 620.368L264.576 654.878L443.001 755.394L518.289 798.03C528.5 803.745 547.525 812.274 555.595 819.684C558.941 828.386 560.687 840.236 562.97 849.543L579.823 917.809C585.433 921.007 613.274 938.03 617.512 937.832Q618.157 898.484 617.888 859.132C617.793 842.442 617.244 825.706 617.637 809.019C606.961 803.262 596.525 797.103 585.941 791.184Q547.089 769.722 508.545 747.711Q412.09 694.025 316.443 638.908L224.36 586.746C205.966 576.458 186.448 566.927 169.041 555.041C168.95 570.362 169.325 585.744 168.943 601.053ZM844.7 602.88C845.412 584.238 844.958 565.427 845.016 546.766L845.497 422.81L846.298 337.807C846.371 330.648 847.499 308.908 846.334 302.896L846.036 302.635Q844.359 303.109 842.655 303.471Q840.951 303.833 839.226 304.083Q837.502 304.333 835.764 304.469Q834.027 304.605 832.285 304.626Q830.543 304.648 828.803 304.555Q827.063 304.462 825.333 304.256Q823.603 304.049 821.89 303.729Q820.177 303.409 818.489 302.977C820.466 378.348 820.965 453.854 821.94 529.25L822.153 571.07C822.155 579.035 820.961 594.011 823.138 601.319C826.211 604.362 829.847 606.127 834.245 606.046C838.143 605.974 841.344 604.705 844.7 602.88ZM848.407 609.475C840.753 613.024 832.934 615.174 824.57 612.292C823.021 611.758 821.555 610.958 820.161 610.101C806.432 621.593 796.532 639.535 795.034 657.517C794.377 665.406 795.733 674.24 801.14 680.358C802.223 681.583 803.326 682.422 804.72 683.257C811.249 686.149 817.132 686.825 823.962 684.238C837.681 679.042 847.677 665.871 853.406 652.839C858.058 642.256 860.23 629.119 855.683 618.111C854.418 615.049 852.229 610.985 849.191 609.481L848.407 609.475ZM826.683 212.155C815.165 213.631 804.388 219.168 797.193 228.415C790.051 237.596 787.09 249.735 788.629 261.217C790.164 272.68 797.512 284.028 806.659 290.954Q807.898 291.904 809.205 292.758C816.561 291.674 823.632 289.848 830.728 287.647C849.333 280.36 860.342 271.704 873.043 256.366C871.413 242.187 868.305 230.426 856.522 221.176C848.433 214.827 837.644 210.849 827.267 212.06C827.071 212.083 826.878 212.123 826.683 212.155ZM466.624 960.266L572.339 920.75C570.225 910.975 552.738 831.271 550.185 829.366Q529.536 845.193 509.267 861.503C490.554 876.72 471.987 892.403 452.514 906.646Q451.784 936.3 450.449 965.932L466.624 960.266ZM445.118 907.44Q399.301 880.572 352.96 854.619L175.423 752.842L104.786 712.401C90.684 704.353 75.5562 696.543 62.2628 687.269C59.2828 705.601 55.5963 726.475 54.8358 744.902C66.2426 752.076 78.0388 758.67 89.7114 765.401L163.815 807.34L361.321 919.18L405.378 944.334C417.071 950.874 428.937 957.039 440.276 964.202C440.781 964.448 442.459 965.467 442.91 965.4L443.181 964.308L442.703 964.509L443.23 963.773Q444.961 935.633 445.118 907.44ZM785.114 672.003C786.8 673.35 788.48 674.634 790.288 675.813C785.051 658.518 787.702 644.524 796.117 628.623C801.028 619.343 807.622 610.989 815.97 604.591C815.427 601.028 815.832 595.605 814.401 592.521C797.584 601.041 786.208 615.707 780.276 633.519C776.922 643.592 775.093 655.651 780.189 665.471C781.494 667.987 783.143 669.991 785.114 672.003Z"/>
	<path fill="#25384E" d="M336.505 230.669C337.007 230.654 337.511 230.654 338.013 230.675C341.829 230.838 345.112 231.883 348.527 233.526C356.612 237.415 364.496 241.954 372.411 246.193L415.227 269.097Q473.712 299.949 531.843 331.466Q605.588 370.397 678.725 410.456C689.25 416.29 717.227 430.122 724.011 437.493C724.881 440.475 723.02 445.108 721.986 447.996C716.034 464.611 709.014 480.877 702.626 497.331L660.449 607.537L627.021 694.943C620.754 711.3 615.276 728.954 607.254 744.513C604.616 749.631 600.568 752.768 595.07 754.522C590.903 753.721 587.308 751.922 583.606 749.924C565.078 739.929 547.19 728.597 528.774 718.349L324.809 604.285Q285.665 582.654 246.964 560.238C236.874 554.52 215.038 543.846 207.286 536.406C206.543 531.635 209.859 524.652 211.545 520.232C218.704 501.469 226.838 483.083 234.344 464.457L291.537 323.34L315.944 262.743C318.742 255.859 321.989 245.406 325.652 239.197C328.278 234.745 331.513 232.019 336.505 230.669ZM597.874 737.151L599.143 737.342C600.16 736.401 600.518 735.302 600.984 734.046C603.37 727.616 605.026 720.812 607.116 714.269C610.119 704.87 613.49 695.555 616.819 686.266Q630.858 645.98 648.716 607.235C655.808 591.586 663.838 576.428 670.66 560.636C680.057 538.882 687.952 516.457 696.401 494.322C703.208 476.49 710.687 458.871 717.265 440.965C708.319 434.273 697.848 429.5 688.083 424.112Q668.52 413.061 648.792 402.309C639.147 397.104 629.214 392.283 619.793 386.69L619.515 387.334C614.994 397.677 608.115 407.449 602.469 417.25Q588.097 442.382 575.063 468.232C549.58 519.303 527.376 573.135 511.555 627.979C506.465 645.624 503.101 663.479 498.538 681.211Q533.234 699.595 567.355 719.026C577.515 724.829 588.357 730.367 597.874 737.151ZM377.022 613.784C386.731 618.43 396.075 623.891 405.471 629.134L443.515 650.454Q453.791 656.362 464.323 661.8C467.206 663.321 470.132 665.204 473.111 666.487C474.287 666.994 474.968 667.301 476.241 666.955L476.716 665.478Q478.621 657.093 480.687 648.745Q482.753 640.398 484.979 632.092Q487.205 623.786 489.59 615.524Q491.975 607.262 494.518 599.047Q497.061 590.833 499.761 582.669Q502.462 574.505 505.318 566.394Q508.175 558.283 511.187 550.228Q514.199 542.174 517.365 534.179Q520.531 526.184 523.85 518.251Q527.169 510.318 530.64 502.45Q534.111 494.583 537.732 486.783Q541.353 478.984 545.123 471.255Q548.894 463.526 552.812 455.872Q556.73 448.217 560.794 440.639Q564.859 433.061 569.068 425.562Q573.277 418.063 577.629 410.647C583.039 401.467 592.716 383.089 599.091 375.919C572.15 361.285 545.033 346.861 518.278 331.897C511.643 328.185 503.309 324.501 497.147 320.705C491.612 333.369 483.936 345.232 477.049 357.204Q465.423 377.309 455.386 398.253C433.441 443.514 411.985 488.565 396.924 536.706C391.724 553.326 387.36 570.392 383.299 587.33C381.194 596.112 379.431 605.091 377.022 613.784ZM491.129 318.104C488.62 316.663 486.126 315.163 483.575 313.801C443.894 377.83 407.93 448.15 384.007 519.662C378.038 537.503 373.137 555.584 368.5 573.806C365.93 583.906 363.077 594.039 361.005 604.252L369.682 608.754C370.591 608.077 370.45 607.517 370.699 606.447L372.196 607.34L370.705 606.721C373.802 597.045 375.572 586.887 377.925 577.011Q382.56 558.027 388.402 539.379Q402.658 494.881 421.582 452.158C430.066 433.193 439.542 414.563 448.756 395.938C461.784 369.602 475.055 342.74 491.129 318.104ZM613.796 383.585C610.807 382.176 607.836 380.756 604.908 379.224C596.551 393.008 588.021 406.723 580.149 420.791C536.762 498.341 500.389 584.879 483.197 672.192C486.287 673.881 489.273 675.619 492.201 677.575C504.392 619.004 522.192 568.133 545.993 513.517C553.912 495.346 561.878 477.182 570.978 459.562C584.34 433.691 599.578 408.961 613.796 383.585ZM353.847 600.015C358.192 588.477 360.598 576.007 363.606 564.062Q369.486 541.223 376.618 518.744C393.78 465.816 420.677 410.662 447.174 361.75C456.111 345.254 466.39 325.669 477.112 310.418C460.509 300.777 443.12 292.309 426.256 283.112C411.493 275.06 396.545 265.411 380.909 259.195C375.762 267.127 369.606 274.413 364.297 282.251C353.828 297.705 344.253 314.041 335.081 330.299C299.257 393.804 272.677 474.222 256.204 545.378L353.847 600.015Z"/>
	<path fill="#25384E" d="M601.288 488.991C610.72 493.153 644.051 510.44 650.371 517.425C640.332 534.172 625.111 551.226 612.6 566.337C608.226 571.62 603.252 576.85 599.452 582.546C603.049 582.363 606.43 582.392 609.925 583.407Q610.498 583.572 611.063 583.766Q611.627 583.959 612.182 584.18Q612.736 584.401 613.279 584.649Q613.821 584.897 614.351 585.172Q614.881 585.447 615.396 585.747Q615.911 586.048 616.411 586.374Q616.911 586.7 617.395 587.05Q617.878 587.4 618.343 587.773Q618.808 588.147 619.255 588.543Q619.701 588.939 620.127 589.357Q620.553 589.774 620.958 590.213Q621.363 590.651 621.746 591.109Q622.129 591.566 622.488 592.042Q622.848 592.519 623.183 593.012Q623.519 593.505 623.83 594.015Q624.141 594.524 624.426 595.048C627.558 600.873 627.885 608.043 625.853 614.284C623.416 621.766 618.158 626.401 611.379 629.803Q610.745 629.995 610.108 630.176C603.584 632.028 596.588 631.887 590.616 628.371C583.482 624.171 580.808 617.316 578.84 609.725C575.972 610.667 573.245 611.58 570.197 611.752C564.341 612.084 558.914 610.21 554.605 606.208Q554.177 605.807 553.77 605.384Q553.363 604.962 552.977 604.519Q552.592 604.077 552.229 603.615Q551.866 603.154 551.528 602.675Q551.188 602.196 550.874 601.701Q550.559 601.206 550.27 600.695Q549.981 600.184 549.718 599.66Q549.455 599.136 549.218 598.599Q548.982 598.062 548.773 597.513Q548.564 596.965 548.383 596.407Q548.201 595.849 548.048 595.282Q547.895 594.716 547.771 594.142Q547.647 593.569 547.552 592.99Q547.456 592.411 547.39 591.828Q547.324 591.245 547.288 590.659Q547.251 590.074 547.244 589.487C547.172 583.747 549.254 577.974 553.359 573.899C557.543 569.744 563.561 567.515 569.429 567.612C575.8 567.718 580.472 570.697 584.775 575.098C588.651 557.672 591.309 539.626 594.277 522.007C596.115 511.091 597.371 499.391 601.288 488.991Z"/>
	<path fill="#E16B6A" d="M567.75 571.14C574.017 571.499 579.925 573.241 584.164 578.192C587.825 582.467 588.153 586.824 587.786 592.146C590.17 590.357 592.474 588.608 595.253 587.464C600.136 585.453 605.309 585.284 610.185 587.428C615.443 589.74 619.575 594.389 621.417 599.809C623.233 605.153 622.889 611.187 620.234 616.198C616.976 622.348 611.492 625.211 605.101 627.117C603.346 627.123 601.544 627.163 599.804 626.917C594.229 626.129 588.81 623.145 585.578 618.482C581.785 613.006 582.026 607.003 583.135 600.757C580.163 603.879 577.201 606.627 572.93 607.855C568.783 609.047 564.48 608.246 560.814 606.055C556.34 603.381 552.92 598.811 551.708 593.734Q551.496 592.856 551.372 591.961Q551.247 591.067 551.211 590.164Q551.175 589.262 551.227 588.36Q551.279 587.458 551.42 586.566Q551.56 585.674 551.787 584.8Q552.014 583.926 552.326 583.078Q552.638 582.23 553.031 581.417Q553.424 580.604 553.895 579.833C557.008 574.803 562.171 572.385 567.75 571.14Z"/>
	<path fill="#E16B6A" d="M602.922 493.773C616.325 502.683 630.94 509.798 645.211 517.189C640.76 525.123 634.999 531.875 629.329 538.935L608.91 564.139C602.777 571.489 596.665 578.687 589.589 585.166C588.379 581.825 587.612 578.897 587.871 575.312C588.55 565.912 591.757 556.048 593.634 546.786Q599.106 520.424 602.922 493.773Z"/>
	<path fill="#25384E" d="M530.232 648.63C539.049 648.206 548.041 650.88 556.073 654.279C569.986 660.169 588.607 671.284 594.263 686.236C595.258 688.867 595.738 691.823 594.393 694.428C592.845 697.428 589.484 699.534 586.388 700.571C577.525 701.981 568.358 698.639 560.393 695.033C546.626 688.8 527.075 676.863 521.785 661.701C520.932 659.254 520.583 656.604 521.882 654.242C523.589 651.139 526.977 649.515 530.232 648.63ZM585.878 696.998C588.243 695.605 590.061 694.507 590.73 691.694C591.514 688.397 590.005 685.202 588.208 682.521C578.699 668.329 554.931 655.423 538.393 652.37C535.571 651.848 532.845 651.796 529.985 652.06C527.994 653.352 526.242 654.745 525.692 657.181C524.962 660.408 526.512 663.606 528.289 666.202C537.91 680.261 561.861 694.058 578.407 696.939C580.943 697.38 583.338 697.498 585.878 696.998Z"/>
	<path fill="#25384E" d="M626.512 426.588Q628.551 426.447 630.595 426.483Q632.638 426.518 634.671 426.729Q636.704 426.94 638.711 427.325Q640.718 427.71 642.685 428.267C658.305 432.602 682.61 446.221 690.604 460.984C692.086 463.723 693.355 466.979 692.301 470.093C691.252 473.193 688.817 474.821 686.048 476.255C680.268 477.785 673.795 476.594 668.139 475.012C651.742 470.425 630.577 458.375 622.156 442.928C620.45 439.798 619.072 436.268 620.234 432.709C621.295 429.458 623.643 428.118 626.512 426.588ZM684.224 472.763C686.04 471.592 687.551 470.66 688.13 468.438C688.832 465.742 687.671 463.007 686.224 460.779C677.196 446.882 652.41 433.448 636.383 430.425C633.629 429.906 630.869 429.892 628.079 430.048C626.144 431.214 624.628 432.151 624.086 434.469C623.355 437.595 624.954 440.643 626.647 443.152C636.551 457.822 658.184 469.915 675.388 472.922C678.499 473.465 681.14 473.61 684.224 472.763Z"/>
	<path fill="#25384E" d="M474.389 431.647C478.123 431.533 482.181 432.257 485.421 434.19C491.668 437.917 494.341 445.337 496.192 451.978C501.079 449.841 506.627 448.317 511.967 449.386C517.292 450.453 521.672 453.833 524.668 458.289C528.481 463.961 530.026 471.145 528.552 477.847C527.194 484.022 523.425 489.732 518.025 493.088C513.196 496.09 506.911 497.158 501.374 495.769C495.008 494.171 492.013 489.195 489.006 483.881C479.874 509.667 478.447 537.884 473.681 564.677L472.731 566.11L472.185 566.181C470.74 566.367 467.872 563.903 466.676 563.041C453.18 553.311 439.603 545.368 423.837 539.852C428.83 531.475 435.076 523.891 441.069 516.223C451.025 503.484 461.31 490.976 471.033 478.061C466.814 477.311 462.918 476.337 459.388 473.748C455.373 470.803 452.877 466.528 452.156 461.613C451.098 454.397 453.385 446.599 457.833 440.859C462.093 435.362 467.619 432.537 474.389 431.647Z"/>
	<path fill="#E16B6A" d="M472.2 435.557C491.894 434.642 488.519 450.972 495.364 455.982C497.808 456.631 502.35 453.843 505.043 453.285C508.932 452.48 512.66 453.301 515.963 455.48C520.699 458.603 523.111 463.322 524.226 468.766Q524.328 469.264 524.406 469.767Q524.483 470.27 524.535 470.776Q524.588 471.282 524.614 471.791Q524.641 472.299 524.643 472.807Q524.644 473.316 524.62 473.825Q524.596 474.333 524.547 474.839Q524.497 475.346 524.423 475.849Q524.348 476.352 524.249 476.851Q524.149 477.35 524.025 477.844Q523.9 478.337 523.751 478.824Q523.602 479.31 523.429 479.789Q523.256 480.267 523.06 480.736Q522.863 481.206 522.643 481.664Q522.423 482.123 522.181 482.571Q521.938 483.018 521.674 483.453Q521.409 483.887 521.123 484.308C518.095 488.749 512.586 492.549 507.196 493.388C497.933 494.831 495.57 483.843 489.457 479.431C488.747 479.32 488.366 479.059 487.742 479.518C479.803 485.35 473.156 544.019 471.687 556.186L471.102 561.426C457.682 552.182 444.627 544.426 429.66 537.959C436.799 529.317 443.234 519.945 450.176 511.113C457.283 502.071 473.563 484.175 477.865 475.027L477.429 474.162C473.771 472.609 469.544 474.553 465.572 473.376C461.961 472.307 459.203 469.519 457.604 466.178C455.126 461.003 455.384 454.844 457.417 449.568C460.263 442.182 465.282 438.635 472.2 435.557Z"/>
	<path fill="#25384E" d="M405.255 581.166C413.439 581.453 420.896 583.155 428.406 586.456C443.165 592.943 463.748 604.662 469.524 620.699C470.42 623.187 470.921 626.072 469.628 628.521C468.029 631.551 464.505 633.285 461.374 634.179C449.294 634.746 438.758 630.977 428.334 625.101C416.87 618.638 399.628 606.805 396.198 593.148C395.582 590.694 395.536 588.065 397.001 585.894C398.876 583.116 402.103 581.804 405.255 581.166ZM460.887 630.389C463.019 629.5 464.829 628.392 465.772 626.173C466.698 623.995 466.061 621.719 465.089 619.68C458.089 604.992 435.395 592.233 420.655 587.313C415.379 585.552 410.548 584.739 404.99 585.079C403.001 586.058 401.165 586.932 400.348 589.137C399.404 591.688 400.34 594.491 401.579 596.756C409.439 611.129 432.445 625.155 447.86 629.406C452.315 630.634 456.296 631.003 460.887 630.389Z"/>
	<path fill="#25384E" d="M506.3 358.111C514.227 357.713 520.874 359.145 528.269 361.969C542.456 367.387 560.166 378.328 566.296 392.99C567.582 396.068 568.338 399.598 566.852 402.748C565.19 406.271 561.584 408.227 558.058 409.391C547.405 409.599 538.412 406.804 528.975 401.953C517.16 395.879 501.129 384.612 497.116 371.132C496.369 368.621 496.241 365.941 497.638 363.624C499.497 360.542 502.995 359.049 506.3 358.111ZM556.948 406.01C558.86 405.102 560.515 404.141 562.214 402.877L564.027 398.688C561.275 387.076 552.579 379.528 542.792 373.449C533.054 367.4 519.116 360.758 507.306 361.611C504.58 362.536 502.124 363.481 500.791 366.228C499.786 368.297 500.126 370.572 501.007 372.617C506.594 385.587 526.15 397.92 538.916 402.601C544.705 404.724 550.731 406.396 556.948 406.01Z"/>
	<path fill="#25384E" d="M350.354 364.176C355.375 363.706 359.984 364.224 364.459 366.717C371.728 370.767 373.886 377.316 375.922 384.82C380.067 382.623 383.965 381.282 388.764 381.614Q389.257 381.65 389.747 381.711Q390.238 381.771 390.725 381.856Q391.211 381.941 391.693 382.05Q392.176 382.159 392.652 382.291Q393.128 382.424 393.596 382.58Q394.065 382.737 394.526 382.916Q394.986 383.095 395.437 383.297Q395.888 383.499 396.329 383.724Q396.769 383.948 397.198 384.193Q397.626 384.439 398.042 384.706Q398.458 384.973 398.861 385.26Q399.263 385.547 399.65 385.854Q400.037 386.161 400.409 386.487Q400.781 386.812 401.136 387.156Q401.491 387.5 401.828 387.861Q402.166 388.222 402.485 388.599C406.587 393.402 407.847 399.838 407.289 406C406.583 413.812 402.62 421.893 396.383 426.746C392.565 429.716 387.844 431.446 382.975 430.778C375.029 429.688 370.774 423.504 366.331 417.605C362.453 433.232 359.165 449.561 358.142 465.651C357.641 473.524 359.148 495.472 356.331 501.172C347.281 497.127 308.223 476.741 302.19 471.09C302.151 469.033 304.099 466.954 305.387 465.402C310.479 459.263 316.512 453.909 321.646 447.768C332.01 435.371 341.344 421.986 350.997 409.024C347.22 409.005 343.541 409.093 340.021 407.495C336.244 405.78 333.596 402.65 332.155 398.791C329.916 392.794 330.6 385.58 333.177 379.806C336.657 372.007 342.443 367.195 350.354 364.176Z"/>
	<path fill="#E16B6A" d="M351.665 368.091C353.468 367.938 355.449 367.84 357.259 367.987C370.693 369.077 367.54 381.268 372.95 386.938C373.295 387.299 374.14 388.08 374.564 388.253C376.305 388.963 385.173 385.619 388.181 385.698C392.048 385.8 395.719 387.328 398.27 390.28C401.868 394.444 403.688 401.118 403.203 406.565C402.647 412.824 399.913 419.252 394.93 423.222C391.51 425.947 387.137 427.487 382.753 426.833C374.737 425.636 374.03 420.132 369.715 414.898C368.845 413.842 368.273 413.582 366.951 413.45C366.05 413.777 365.484 414.039 364.781 414.721C361.251 418.148 360.307 426.304 359.396 430.995C355.247 452.353 353.807 473.14 353.756 494.874C337.862 489 320.977 478.236 306.363 469.471Q310.837 464.969 315.233 460.391C322.923 452.399 355.499 415.127 355.308 405.47C352.991 403.55 345.467 404.905 342.329 404.973C339.426 403.218 337.223 401.43 335.765 398.289C333.516 393.439 334.309 387.896 336.253 383.081C339.303 375.528 344.37 371.211 351.665 368.091Z"/>
	<path fill="#25384E" d="M384.618 292.727C401.342 292.751 416.78 299.886 429.984 309.746C436.612 314.697 446.839 323.581 447.807 332.4C448.091 334.982 447.298 337.308 445.588 339.242C443.407 341.71 440.64 343.057 437.376 343.272C421.25 343.364 406.199 336.951 393.355 327.466C385.865 321.936 374.793 312.217 373.619 302.297C373.383 300.302 373.765 298.289 375.069 296.712C377.43 293.857 381.158 293.168 384.618 292.727ZM438.196 339.54C440.691 338.379 442.933 337.389 443.832 334.588C444.66 332.01 443.7 329.41 442.382 327.18C433.759 312.586 412.175 301.348 396.203 297.614C391.901 296.608 388.041 296.377 383.633 296.55C381.276 297.393 379.188 298.159 378.092 300.584C377.235 302.48 377.551 304.501 378.32 306.368C383.508 318.966 403.593 330.951 415.717 335.569C422.727 338.239 430.632 340.641 438.196 339.54Z"/>
	<path fill="#25384E" d="M283.107 513.146C293.951 512.453 306.268 516.785 315.837 521.523C327.891 527.492 344.132 537.601 348.434 551.268C349.21 553.73 349.574 556.634 348.225 558.975C346.596 561.799 344.315 563.086 341.278 563.975C332.035 564.366 323.175 562.612 314.624 559.091C300.597 553.314 282.354 541.63 276.442 526.889C275.344 524.152 274.548 520.968 275.942 518.183C277.42 515.227 280.118 514.059 283.107 513.146ZM341.35 560.403C343.218 559.287 344.5 558.321 345.128 556.153C345.969 553.244 344.751 550.637 343.265 548.186C333.853 532.655 311.233 521.211 294.069 517.399C290.486 516.603 287.064 516.3 283.389 516.525C281.501 517.53 279.973 518.357 279.268 520.523C278.495 522.896 279.269 525.37 280.413 527.477C288.661 542.676 309.521 554.467 325.683 558.819C330.956 560.239 335.906 560.882 341.35 560.403Z"/>
	<path fill="#E16B6A" d="M335.671 237.955C346.741 237.411 364.205 250.571 374.584 255.749Q367.195 265.757 360.186 276.035Q353.178 286.313 346.559 296.846Q339.941 307.38 333.722 318.154Q327.504 328.928 321.693 339.928Q315.883 350.928 310.489 362.138Q305.095 373.348 300.126 384.752Q295.156 396.156 290.618 407.739Q286.079 419.321 281.978 431.066C269.761 465.556 259.981 501.033 250.462 536.341C250.171 537.335 249.799 538.27 249.408 539.228C245.946 540.919 220.371 531.591 215.072 530.098C223.621 511.516 231.151 492.28 238.997 473.386Q262.036 417.901 284.184 362.054C292.251 341.728 325.931 248.958 335.671 237.955Z"/>
	<path fill="#E16B6A" d="M226.152 540.98C228.654 541.257 231.134 542.168 233.495 543.014C252.9 549.961 270.907 562.123 288.791 572.29L375.915 621.582L534.726 709.428L572.225 730.427C579.884 734.679 587.836 738.716 595.255 743.371C596.732 744.298 598.139 745.171 598.912 746.793C597.963 747.087 596.982 747.361 595.995 747.489C592.776 747.907 589.476 746.646 586.7 745.116C572.043 737.04 557.89 727.994 543.277 719.809L342.273 606.943L265.002 563.371C252.104 556.119 238.014 549.815 226.152 540.98Z"/>
	<path fill="#25384E" d="M368.96 755.632C374.44 755.086 380.106 756.014 384.819 758.983C388.426 761.256 391.338 764.776 392.202 769.02C393.283 774.33 390.889 778.13 388.08 782.322Q405.693 792.563 423.453 802.546C433.272 808.056 443.23 813.287 452.4 819.852C455.885 817.706 459.475 815.779 463.41 814.593C469.55 812.742 476.53 812.651 482.246 815.87C486.007 817.989 488.977 821.468 490.127 825.664Q490.318 826.356 490.438 827.063Q490.559 827.77 490.607 828.486Q490.655 829.202 490.63 829.919Q490.606 830.636 490.509 831.347Q490.412 832.058 490.244 832.756Q490.075 833.453 489.837 834.13Q489.599 834.807 489.294 835.456Q488.988 836.106 488.619 836.721C485.249 842.44 479.464 844.671 473.419 846.344C473.877 851.843 472.75 856.803 469.005 861.029C464.677 865.914 458.848 867.319 452.605 867.575C448.797 867.421 444.79 866.285 441.498 864.385C437.636 862.156 434.571 858.716 433.461 854.328C432.059 848.784 433.933 843.985 436.639 839.25Q417.072 828.35 397.81 816.921C389.215 811.899 380.363 807.091 372.098 801.548C368.588 805.806 364.403 809.336 358.979 810.87Q358.466 811.016 357.947 811.135Q357.428 811.255 356.904 811.349Q356.379 811.443 355.851 811.511Q355.323 811.578 354.791 811.62Q354.26 811.661 353.728 811.676Q353.195 811.691 352.662 811.679Q352.13 811.667 351.598 811.629Q351.067 811.591 350.538 811.526Q350.009 811.461 349.484 811.37Q348.959 811.28 348.44 811.163Q347.92 811.046 347.407 810.903Q346.893 810.76 346.388 810.592Q345.882 810.424 345.386 810.231Q344.889 810.038 344.403 809.821Q343.916 809.604 343.441 809.362Q342.966 809.121 342.504 808.856C338.434 806.508 334.95 802.658 333.834 798.008Q333.654 797.236 333.553 796.449Q333.453 795.662 333.434 794.869Q333.414 794.076 333.476 793.286Q333.538 792.495 333.68 791.714Q333.823 790.934 334.044 790.173Q334.265 789.411 334.564 788.676Q334.862 787.941 335.234 787.241Q335.605 786.54 336.047 785.881C339.934 780.072 346.169 778.182 352.643 776.927C352.401 772.05 351.994 767.466 354.808 763.164C358.023 758.25 363.557 756.737 368.96 755.632Z"/>
	<path fill="#E16B6A" d="M368.972 762.11C372.57 761.827 376.632 761.959 379.845 763.79C383.415 765.825 384.632 768.671 385.751 772.405C384.551 777.086 382.708 780.06 379.755 783.833C386.724 788.999 394.545 793.137 402.057 797.462C419.687 807.612 437.874 816.946 455.276 827.445C457.302 825.529 459.468 823.626 461.897 822.226C465.984 819.869 471.042 818.618 475.676 819.963C478.92 820.904 482.165 823.188 483.738 826.23C484.655 828.004 484.845 830.039 484.167 831.928C481.841 838.419 472.637 839.945 467.019 842.382C467.207 846.516 468.082 851.906 465.558 855.478C462.972 859.139 457.401 859.825 453.329 860.652C449.855 860.29 445.63 859.558 442.766 857.441C441.138 856.237 439.994 854.529 439.708 852.506C438.942 847.103 443.083 842.229 445.976 838.132C436.111 830.831 424.687 825.42 414.036 819.339C399.426 810.998 384.963 801.972 369.915 794.475C366.656 798.692 363.615 802.566 358.235 804.104C354.258 805.242 349.654 804.786 346.073 802.669C343.734 801.286 341.712 799.107 341.047 796.417C340.404 793.815 340.991 791.256 342.481 789.057C346.28 783.448 354.101 782.369 360.238 781.271Q359.825 779.71 359.447 778.14C358.563 774.439 357.738 770.066 360.016 766.683C362.065 763.64 365.592 762.788 368.972 762.11Z"/>
	<path fill="#25384E" d="M164.404 637.674C167.969 637.792 171.435 638.209 174.767 639.559C179.26 641.381 183.16 644.687 184.983 649.262C187.447 655.444 185.312 661.041 182.794 666.73C204.732 679.127 226.644 692.121 248.157 705.24C251.907 702.952 255.509 700.894 259.795 699.79C265.501 698.32 271.367 698.965 276.426 702.073C280.556 704.61 283.839 708.661 284.86 713.462C285.672 717.276 284.937 721.197 282.71 724.408C279.652 728.82 274.935 730.772 269.828 731.704C268.866 735.954 267.991 739.736 265.203 743.239C261.244 748.214 255.363 749.837 249.309 750.397C244.178 750.449 239.341 749.318 234.986 746.507C231.378 744.179 228.21 740.614 227.48 736.261C226.705 731.641 228.654 728.241 231.286 724.69C218.208 716.284 204.342 708.35 190.818 700.652C182.52 695.93 173.945 691.506 166.077 686.08C164.127 687.185 162.177 688.277 160.129 689.191C153.524 692.138 145.511 692.651 138.762 689.925C134.347 688.142 130.319 684.881 128.61 680.325C127.121 676.356 127.538 671.968 129.456 668.222C132.769 661.748 138.598 659.567 145.02 657.328C146.46 653.019 147.12 647.812 149.859 644.117C153.196 639.616 159.213 638.522 164.404 637.674Z"/>
	<path fill="#E16B6A" d="M165.36 644.151C168.408 644.392 171.176 644.666 173.871 646.287C176.327 647.764 178.006 650.01 178.684 652.8C180.058 658.459 177.255 663.202 174.362 667.785C182.996 674.032 192.651 679.179 201.83 684.602Q225.781 698.905 250.224 712.35C253.781 709.344 257.209 706.827 261.898 705.868C266.131 705.003 270.763 705.642 274.34 708.162C276.723 709.841 278.55 712.372 278.87 715.325Q278.917 715.757 278.922 716.192Q278.926 716.627 278.887 717.06Q278.848 717.493 278.766 717.92Q278.685 718.347 278.561 718.763Q278.437 719.18 278.273 719.583Q278.108 719.985 277.905 720.369Q277.702 720.753 277.461 721.116Q277.22 721.478 276.945 721.814C273.451 726.113 267.468 726.657 262.347 727.164C262.353 731.567 262.085 736.752 259.003 740.196C256.164 743.369 252.122 743.867 248.139 744.171C245.39 743.978 242.214 743.346 239.689 742.236C237.338 741.203 235.401 739.473 234.613 736.974C233.033 731.959 236.181 726.763 238.36 722.461C230.62 716.644 221.872 712.18 213.545 707.269Q189.761 693.229 165.81 679.476C160.919 682.535 155.037 685.355 149.198 685.737C145.398 685.986 141.376 685.036 138.506 682.422C136.505 680.6 135.36 678.106 135.409 675.388C135.458 672.641 136.78 670.122 138.727 668.233C143.411 663.691 146.429 664.671 152.184 664.522C153.62 664.484 154.266 664.406 155.24 663.351C155.829 660.764 154.826 658.535 154.149 656.061C153.543 653.851 153.254 651.582 154.537 649.541C156.521 646.386 161.92 644.884 165.36 644.151Z"/>
	<path fill="#25384E" d="M832.008 620.585C835.312 620.354 838.137 620.499 841.148 622.022C844.388 623.661 846.468 626.392 847.54 629.829C850.209 638.387 847.389 648.6 843.187 656.207C838.704 664.324 831.737 671.147 822.695 673.766C819.275 674.608 816.037 674.217 812.853 672.674C809.708 671.15 807.718 668.105 806.695 664.856C803.925 656.05 806.722 645.747 811.028 637.912C815.803 629.223 822.434 623.358 832.008 620.585Z"/>
	<path fill="#E16B6A" d="M830.649 626.066C832.498 625.948 834.403 625.875 836.203 626.395C838.82 627.15 841.193 628.651 842.499 631.099C844.801 635.413 843.753 641.655 842.388 646.178C839.363 656.197 832.956 663.516 823.809 668.408C821.793 668.598 819.811 668.797 817.839 668.211C815.377 667.478 813.174 665.887 812.045 663.543C809.574 658.408 811.171 650.803 813.09 645.629C816.344 636.857 822.125 630.027 830.649 626.066Z"/>
	<path fill="#E16B6A" d="M870.434 267.009C870.887 267.609 870.813 267.915 870.718 268.643C869.663 276.738 861.879 284.823 855.584 289.359C845.236 296.813 834.539 298.708 822.111 296.66L821.168 296.236L821.119 295.551C825.28 292.578 832.496 291.281 837.413 289.381C849.909 284.55 860.743 276.058 870.434 267.009Z"/>
	<path fill="#25384E" d="M316.237 42.1548C316.462 42.2445 316.698 42.312 316.913 42.424C322.85 45.514 325.591 68.6739 331.253 75.449C336.425 81.637 344.867 84.0053 351.392 88.4058L351.951 88.7881C351.79 88.9192 351.626 89.0478 351.466 89.1814C345.676 94.0192 338.151 96.6131 332.866 102.042C323.661 111.497 325.387 126.675 317.296 136.774C310.85 130.469 309.655 111.271 302.732 102.067C297.949 95.7073 285.555 93.6023 281.86 88.1894C285.692 83.7833 296.832 82.7468 301.961 76.9858C310.359 67.5521 309.484 52.5904 316.237 42.1548ZM289.073 88.453C303.145 96.1195 308.8 100.975 313.661 116.634C314.898 120.618 315.917 124.78 317.437 128.66C321.169 115.947 323.553 103.741 334.905 95.4879C338.073 93.1849 341.532 91.4942 344.831 89.4259C327.26 80.4356 325.144 75.2625 319.233 57.0278C318.57 54.9823 318.226 52.3054 317.355 50.4119C313.407 63.0159 310.275 78.5959 297.51 85.3041C294.823 86.7159 291.99 87.6529 289.073 88.453Z"/>
	<path fill="#25384E" d="M948.028 251.668C954.354 254.846 955.968 278.951 963.321 286.999C969.061 293.281 978.435 294.652 985.389 299.165L986.016 299.577C980.772 302.83 974.962 304.541 969.551 307.416C956.134 314.545 953.431 333.642 949.269 346.835L948.035 346.866C942.618 342.519 941.968 324.035 936.854 316.882C929.297 306.312 920.418 307.51 913.335 300.68C913.274 300.31 913.065 299.935 913.151 299.569C913.599 297.68 925.623 293.011 927.997 291.624Q929.523 290.738 930.92 289.661Q932.318 288.584 933.564 287.334C944.75 275.981 941.835 261.657 948.028 251.668ZM920.441 300.063C930.239 304.942 939.223 309.523 943.015 320.63C944.836 325.965 946.093 331.588 947.723 336.998L948.313 337.148C952.165 323.621 955.388 311.176 968.473 303.848C971.346 302.238 974.337 300.824 977.305 299.398C969.095 297.04 961.495 293.059 957.2 285.299C953.511 278.633 952.399 266.154 949.041 261.265C945.962 274.527 942.241 287.675 929.956 295.258C926.983 297.093 923.62 298.606 920.441 300.063Z"/>
	<path fill="#25384E" d="M255.607 123.644C255.796 123.716 255.995 123.767 256.175 123.859C260.824 126.232 261.487 137.762 264.184 142.338C266.824 146.816 276.075 147.671 277.804 152.227C274.223 156.149 268.01 157.374 264.888 162.058C261.618 166.961 262.236 177.921 257.971 182.001C257.328 182.615 256.83 182.398 256.002 182.402C254.001 176.446 252.296 169.446 248.752 164.215C243.989 157.185 234.799 155.924 232.815 152.863C233.322 150.287 237.637 148.768 239.883 147.665C241.907 146.671 244.364 145.729 246.1 144.28C251.636 139.657 252.402 129.856 255.607 123.644ZM256.603 173.768C262.852 167.751 256.206 158.68 272.888 152.474C264.127 147.699 261.867 145.54 258.067 136.392C257.594 135.253 257.154 133.697 256.275 132.846C252.556 142.829 248.874 147.718 239.377 152.666C246.188 155.734 251.138 158.533 253.902 165.931C254.869 168.52 255.621 171.187 256.603 173.768Z"/>
</svg>
